G04 #@! TF.GenerationSoftware,KiCad,Pcbnew,(5.0.0-3-g5ebb6b6)*
G04 #@! TF.CreationDate,2019-01-19T11:57:15+01:00*
G04 #@! TF.ProjectId,Securityfest_2019_badge_beta,5365637572697479666573745F323031,rev?*
G04 #@! TF.SameCoordinates,Original*
G04 #@! TF.FileFunction,Paste,Top*
G04 #@! TF.FilePolarity,Positive*
%FSLAX46Y46*%
G04 Gerber Fmt 4.6, Leading zero omitted, Abs format (unit mm)*
G04 Created by KiCad (PCBNEW (5.0.0-3-g5ebb6b6)) date 2019 January 19, Saturday 11:57:15*
%MOMM*%
%LPD*%
G01*
G04 APERTURE LIST*
%ADD10R,1.600000X1.500000*%
%ADD11R,1.200000X1.200000*%
%ADD12R,0.800000X0.800000*%
%ADD13R,1.200000X0.750000*%
%ADD14C,0.750000*%
%ADD15C,0.100000*%
%ADD16R,0.750000X1.200000*%
%ADD17C,0.900000*%
%ADD18R,1.300000X0.450000*%
%ADD19R,3.800000X1.800000*%
%ADD20R,3.000000X0.800000*%
%ADD21R,0.900000X1.200000*%
%ADD22R,1.200000X0.900000*%
%ADD23R,1.060000X0.650000*%
%ADD24C,1.500000*%
%ADD25C,2.200000*%
G04 APERTURE END LIST*
D10*
G04 #@! TO.C,RV1*
X127000000Y-113210000D03*
D11*
X128000000Y-109960000D03*
X126000000Y-109960000D03*
G04 #@! TD*
D12*
G04 #@! TO.C,D6*
X171450000Y-113500000D03*
X171450000Y-115100000D03*
G04 #@! TD*
G04 #@! TO.C,D5*
X171450000Y-101600000D03*
X171450000Y-100000000D03*
G04 #@! TD*
G04 #@! TO.C,D3*
X133350000Y-101930000D03*
X133350000Y-100330000D03*
G04 #@! TD*
G04 #@! TO.C,D4*
X133350000Y-115100000D03*
X133350000Y-113500000D03*
G04 #@! TD*
D13*
G04 #@! TO.C,C1*
X154620000Y-50800000D03*
X152720000Y-50800000D03*
G04 #@! TD*
G04 #@! TO.C,C2*
X151130000Y-48260000D03*
X153030000Y-48260000D03*
G04 #@! TD*
D14*
G04 #@! TO.C,C3*
X153298243Y-54300710D03*
D15*
G36*
X153743466Y-53750800D02*
X153987642Y-54459939D01*
X152853020Y-54850620D01*
X152608844Y-54141481D01*
X153743466Y-53750800D01*
X153743466Y-53750800D01*
G37*
D14*
X151501757Y-54919290D03*
D15*
G36*
X151946980Y-54369380D02*
X152191156Y-55078519D01*
X151056534Y-55469200D01*
X150812358Y-54760061D01*
X151946980Y-54369380D01*
X151946980Y-54369380D01*
G37*
G04 #@! TD*
D13*
G04 #@! TO.C,C4*
X150180000Y-45720000D03*
X152080000Y-45720000D03*
G04 #@! TD*
D16*
G04 #@! TO.C,C5*
X130810000Y-98740000D03*
X130810000Y-96840000D03*
G04 #@! TD*
D17*
G04 #@! TO.C,D1*
X174767817Y-50307817D03*
D15*
G36*
X174025355Y-50201751D02*
X174661751Y-49565355D01*
X175510279Y-50413883D01*
X174873883Y-51050279D01*
X174025355Y-50201751D01*
X174025355Y-50201751D01*
G37*
D17*
X173212183Y-48752183D03*
D15*
G36*
X172469721Y-48646117D02*
X173106117Y-48009721D01*
X173954645Y-48858249D01*
X173318249Y-49494645D01*
X172469721Y-48646117D01*
X172469721Y-48646117D01*
G37*
G04 #@! TD*
D17*
G04 #@! TO.C,D2*
X168008933Y-45089066D03*
D15*
G36*
X168758534Y-45064593D02*
X168242315Y-45801830D01*
X167259332Y-45113539D01*
X167775551Y-44376302D01*
X168758534Y-45064593D01*
X168758534Y-45064593D01*
G37*
D17*
X169811067Y-46350934D03*
D15*
G36*
X170560668Y-46326461D02*
X170044449Y-47063698D01*
X169061466Y-46375407D01*
X169577685Y-45638170D01*
X170560668Y-46326461D01*
X170560668Y-46326461D01*
G37*
G04 #@! TD*
D18*
G04 #@! TO.C,J1*
X182250000Y-60930000D03*
X182250000Y-61580000D03*
X182250000Y-62230000D03*
X182250000Y-62880000D03*
X182250000Y-63530000D03*
G04 #@! TD*
D19*
G04 #@! TO.C,J2*
X183960000Y-85900000D03*
X183960000Y-79200000D03*
D20*
X179260000Y-81800000D03*
X179260000Y-83300000D03*
G04 #@! TD*
D21*
G04 #@! TO.C,R1*
X171450000Y-62060000D03*
X171450000Y-59860000D03*
G04 #@! TD*
D17*
G04 #@! TO.C,R2*
X171942183Y-50022183D03*
D15*
G36*
X171199721Y-49916117D02*
X171836117Y-49279721D01*
X172684645Y-50128249D01*
X172048249Y-50764645D01*
X171199721Y-49916117D01*
X171199721Y-49916117D01*
G37*
D17*
X173497817Y-51577817D03*
D15*
G36*
X172755355Y-51471751D02*
X173391751Y-50835355D01*
X174240279Y-51683883D01*
X173603883Y-52320279D01*
X172755355Y-51471751D01*
X172755355Y-51471751D01*
G37*
G04 #@! TD*
D17*
G04 #@! TO.C,R3*
X166738933Y-46359066D03*
D15*
G36*
X167488534Y-46334593D02*
X166972315Y-47071830D01*
X165989332Y-46383539D01*
X166505551Y-45646302D01*
X167488534Y-46334593D01*
X167488534Y-46334593D01*
G37*
D17*
X168541067Y-47620934D03*
D15*
G36*
X169290668Y-47596461D02*
X168774449Y-48333698D01*
X167791466Y-47645407D01*
X168307685Y-46908170D01*
X169290668Y-47596461D01*
X169290668Y-47596461D01*
G37*
G04 #@! TD*
D22*
G04 #@! TO.C,R4*
X142410000Y-81280000D03*
X144610000Y-81280000D03*
G04 #@! TD*
G04 #@! TO.C,R5*
X176360000Y-96520000D03*
X174160000Y-96520000D03*
G04 #@! TD*
D21*
G04 #@! TO.C,R6*
X129540000Y-83990000D03*
X129540000Y-86190000D03*
G04 #@! TD*
D22*
G04 #@! TO.C,R7*
X128440000Y-115570000D03*
X130640000Y-115570000D03*
G04 #@! TD*
D17*
G04 #@! TO.C,R8*
X122974459Y-62038676D03*
D15*
G36*
X122650750Y-61362131D02*
X123533303Y-61538483D01*
X123298168Y-62715221D01*
X122415615Y-62538869D01*
X122650750Y-61362131D01*
X122650750Y-61362131D01*
G37*
D17*
X123405541Y-59881324D03*
D15*
G36*
X123081832Y-59204779D02*
X123964385Y-59381131D01*
X123729250Y-60557869D01*
X122846697Y-60381517D01*
X123081832Y-59204779D01*
X123081832Y-59204779D01*
G37*
G04 #@! TD*
D17*
G04 #@! TO.C,R9*
X126884459Y-62778676D03*
D15*
G36*
X126560750Y-62102131D02*
X127443303Y-62278483D01*
X127208168Y-63455221D01*
X126325615Y-63278869D01*
X126560750Y-62102131D01*
X126560750Y-62102131D01*
G37*
D17*
X127315541Y-60621324D03*
D15*
G36*
X126991832Y-59944779D02*
X127874385Y-60121131D01*
X127639250Y-61297869D01*
X126756697Y-61121517D01*
X126991832Y-59944779D01*
X126991832Y-59944779D01*
G37*
G04 #@! TD*
D17*
G04 #@! TO.C,R10*
X129315541Y-61021324D03*
D15*
G36*
X128991832Y-60344779D02*
X129874385Y-60521131D01*
X129639250Y-61697869D01*
X128756697Y-61521517D01*
X128991832Y-60344779D01*
X128991832Y-60344779D01*
G37*
D17*
X128884459Y-63178676D03*
D15*
G36*
X128560750Y-62502131D02*
X129443303Y-62678483D01*
X129208168Y-63855221D01*
X128325615Y-63678869D01*
X128560750Y-62502131D01*
X128560750Y-62502131D01*
G37*
G04 #@! TD*
D17*
G04 #@! TO.C,R11*
X130810000Y-63500000D03*
D15*
G36*
X130486291Y-62823455D02*
X131368844Y-62999807D01*
X131133709Y-64176545D01*
X130251156Y-64000193D01*
X130486291Y-62823455D01*
X130486291Y-62823455D01*
G37*
D17*
X131241082Y-61342648D03*
D15*
G36*
X130917373Y-60666103D02*
X131799926Y-60842455D01*
X131564791Y-62019193D01*
X130682238Y-61842841D01*
X130917373Y-60666103D01*
X130917373Y-60666103D01*
G37*
G04 #@! TD*
D17*
G04 #@! TO.C,R12*
X119984459Y-76778676D03*
D15*
G36*
X120308168Y-77455221D02*
X119425615Y-77278869D01*
X119660750Y-76102131D01*
X120543303Y-76278483D01*
X120308168Y-77455221D01*
X120308168Y-77455221D01*
G37*
D17*
X120415541Y-74621324D03*
D15*
G36*
X120739250Y-75297869D02*
X119856697Y-75121517D01*
X120091832Y-73944779D01*
X120974385Y-74121131D01*
X120739250Y-75297869D01*
X120739250Y-75297869D01*
G37*
G04 #@! TD*
D17*
G04 #@! TO.C,R13*
X122415541Y-75021324D03*
D15*
G36*
X122739250Y-75697869D02*
X121856697Y-75521517D01*
X122091832Y-74344779D01*
X122974385Y-74521131D01*
X122739250Y-75697869D01*
X122739250Y-75697869D01*
G37*
D17*
X121984459Y-77178676D03*
D15*
G36*
X122308168Y-77855221D02*
X121425615Y-77678869D01*
X121660750Y-76502131D01*
X122543303Y-76678483D01*
X122308168Y-77855221D01*
X122308168Y-77855221D01*
G37*
G04 #@! TD*
D17*
G04 #@! TO.C,R14*
X123934459Y-77578676D03*
D15*
G36*
X124258168Y-78255221D02*
X123375615Y-78078869D01*
X123610750Y-76902131D01*
X124493303Y-77078483D01*
X124258168Y-78255221D01*
X124258168Y-78255221D01*
G37*
D17*
X124365541Y-75421324D03*
D15*
G36*
X124689250Y-76097869D02*
X123806697Y-75921517D01*
X124041832Y-74744779D01*
X124924385Y-74921131D01*
X124689250Y-76097869D01*
X124689250Y-76097869D01*
G37*
G04 #@! TD*
D17*
G04 #@! TO.C,R15*
X125984459Y-77978676D03*
D15*
G36*
X126308168Y-78655221D02*
X125425615Y-78478869D01*
X125660750Y-77302131D01*
X126543303Y-77478483D01*
X126308168Y-78655221D01*
X126308168Y-78655221D01*
G37*
D17*
X126415541Y-75821324D03*
D15*
G36*
X126739250Y-76497869D02*
X125856697Y-76321517D01*
X126091832Y-75144779D01*
X126974385Y-75321131D01*
X126739250Y-76497869D01*
X126739250Y-76497869D01*
G37*
G04 #@! TD*
D17*
G04 #@! TO.C,R16*
X127884459Y-78338676D03*
D15*
G36*
X128208168Y-79015221D02*
X127325615Y-78838869D01*
X127560750Y-77662131D01*
X128443303Y-77838483D01*
X128208168Y-79015221D01*
X128208168Y-79015221D01*
G37*
D17*
X128315541Y-76181324D03*
D15*
G36*
X128639250Y-76857869D02*
X127756697Y-76681517D01*
X127991832Y-75504779D01*
X128874385Y-75681131D01*
X128639250Y-76857869D01*
X128639250Y-76857869D01*
G37*
G04 #@! TD*
D23*
G04 #@! TO.C,U1*
X174160000Y-61910000D03*
X174160000Y-60010000D03*
X176360000Y-60010000D03*
X176360000Y-60960000D03*
X176360000Y-61910000D03*
G04 #@! TD*
D24*
G04 #@! TO.C,U2*
X149250232Y-51759577D03*
D15*
G36*
X148899218Y-53043824D02*
X148182968Y-50963683D01*
X149601246Y-50475330D01*
X150317496Y-52555471D01*
X148899218Y-53043824D01*
X148899218Y-53043824D01*
G37*
D24*
X147075540Y-52508384D03*
D15*
G36*
X146724526Y-53792631D02*
X146008276Y-51712490D01*
X147426554Y-51224137D01*
X148142804Y-53304278D01*
X146724526Y-53792631D01*
X146724526Y-53792631D01*
G37*
D24*
X144900847Y-53257190D03*
D15*
G36*
X144549833Y-54541437D02*
X143833583Y-52461296D01*
X145251861Y-51972943D01*
X145968111Y-54053084D01*
X144549833Y-54541437D01*
X144549833Y-54541437D01*
G37*
D25*
X145024460Y-46551616D03*
D15*
G36*
X143586100Y-48210266D02*
X142869850Y-46130125D01*
X146462820Y-44892966D01*
X147179070Y-46973107D01*
X143586100Y-48210266D01*
X143586100Y-48210266D01*
G37*
G04 #@! TD*
M02*
