M48
;DRILL file {KiCad (5.0.0-3-g5ebb6b6)} date 2019 January 24, Thursday 19:12:35
;FORMAT={-:-/ absolute / metric / decimal}
FMAT,2
METRIC,TZ
T1C0.400
T2C0.550
T3C0.850
T4C0.900
T5C1.000
T6C1.100
T7C2.000
%
G90
G05
M71
T1
X118.11Y-80.01
X118.11Y-85.09
X120.65Y-78.74
X120.921Y-72.321
X122.882Y-72.713
X122.974Y-62.039
X123.19Y-82.55
X123.899Y-57.415
X124.844Y-73.104
X125.73Y-71.259
X126.805Y-73.496
X127.822Y-58.199
X128.27Y-80.01
X128.42Y-93.4
X128.766Y-73.888
X129.783Y-58.591
X130.727Y-74.28
X130.81Y-80.01
X130.81Y-81.28
X131.744Y-58.983
X133.706Y-59.375
X134.62Y-74.93
X138.43Y-68.58
X139.7Y-67.31
X144.78Y-49.53
X147.32Y-86.36
X152.4Y-90.13
X153.4Y-90.13
X154.4Y-90.13
X156.21Y-50.065
X165.29Y-49.34
X169.811Y-46.351
X174.768Y-50.308
X177.8Y-88.9
X179.07Y-74.35
T4
X114.3Y-83.82
X114.82Y-81.375
X115.34Y-78.929
X133.35Y-51.8
X135.741Y-51.069
X138.132Y-50.338
T5
X118.11Y-68.58
X120.603Y-69.065
X127.Y-54.61
T6
X179.07Y-69.85
X179.07Y-74.35
X185.57Y-69.85
X185.57Y-74.35
X121.92Y-88.9
X121.92Y-93.4
X128.42Y-88.9
X128.42Y-93.4
X177.8Y-88.9
X177.8Y-93.4
X184.3Y-88.9
X184.3Y-93.4
T7
X135.15Y-93.63
X169.65Y-120.13
T2
X185.775Y-58.355G85X186.425Y-58.355
G05
X185.775Y-66.105G85X186.425Y-66.105
G05
T3
X182.025Y-58.505G85X182.575Y-58.505
G05
X182.025Y-65.955G85X182.575Y-65.955
G05
T0
M30
