G04 #@! TF.GenerationSoftware,KiCad,Pcbnew,(5.0.0-3-g5ebb6b6)*
G04 #@! TF.CreationDate,2019-01-19T11:57:15+01:00*
G04 #@! TF.ProjectId,Securityfest_2019_badge_beta,5365637572697479666573745F323031,rev?*
G04 #@! TF.SameCoordinates,Original*
G04 #@! TF.FileFunction,Paste,Bot*
G04 #@! TF.FilePolarity,Positive*
%FSLAX46Y46*%
G04 Gerber Fmt 4.6, Leading zero omitted, Abs format (unit mm)*
G04 Created by KiCad (PCBNEW (5.0.0-3-g5ebb6b6)) date 2019 January 19, Saturday 11:57:15*
%MOMM*%
%LPD*%
G01*
G04 APERTURE LIST*
%ADD10C,1.000000*%
%ADD11C,0.100000*%
G04 APERTURE END LIST*
D10*
G04 #@! TO.C,U4*
X116998658Y-71536860D03*
D11*
G36*
X116753283Y-70213119D02*
X117733898Y-70409065D01*
X117244033Y-72860601D01*
X116263418Y-72664655D01*
X116753283Y-70213119D01*
X116753283Y-70213119D01*
G37*
D10*
X118959887Y-71928752D03*
D11*
G36*
X118714512Y-70605011D02*
X119695127Y-70800957D01*
X119205262Y-73252493D01*
X118224647Y-73056547D01*
X118714512Y-70605011D01*
X118714512Y-70605011D01*
G37*
D10*
X120921117Y-72320643D03*
D11*
G36*
X120675742Y-70996902D02*
X121656357Y-71192848D01*
X121166492Y-73644384D01*
X120185877Y-73448438D01*
X120675742Y-70996902D01*
X120675742Y-70996902D01*
G37*
D10*
X122882346Y-72712537D03*
D11*
G36*
X122636971Y-71388796D02*
X123617586Y-71584742D01*
X123127721Y-74036278D01*
X122147106Y-73840332D01*
X122636971Y-71388796D01*
X122636971Y-71388796D01*
G37*
D10*
X124843575Y-73104429D03*
D11*
G36*
X124598200Y-71780688D02*
X125578815Y-71976634D01*
X125088950Y-74428170D01*
X124108335Y-74232224D01*
X124598200Y-71780688D01*
X124598200Y-71780688D01*
G37*
D10*
X126804805Y-73496321D03*
D11*
G36*
X126559430Y-72172580D02*
X127540045Y-72368526D01*
X127050180Y-74820062D01*
X126069565Y-74624116D01*
X126559430Y-72172580D01*
X126559430Y-72172580D01*
G37*
D10*
X128766034Y-73888214D03*
D11*
G36*
X128520659Y-72564473D02*
X129501274Y-72760419D01*
X129011409Y-75211955D01*
X128030794Y-75016009D01*
X128520659Y-72564473D01*
X128520659Y-72564473D01*
G37*
D10*
X130727263Y-74280106D03*
D11*
G36*
X130481888Y-72956365D02*
X131462503Y-73152311D01*
X130972638Y-75603847D01*
X129992023Y-75407901D01*
X130481888Y-72956365D01*
X130481888Y-72956365D01*
G37*
D10*
X132707645Y-72024427D03*
D11*
G36*
X131923065Y-71357768D02*
X133688171Y-71710471D01*
X133492225Y-72691086D01*
X131727119Y-72338383D01*
X131923065Y-71357768D01*
X131923065Y-71357768D01*
G37*
D10*
X133099537Y-70063198D03*
D11*
G36*
X132314957Y-69396539D02*
X134080063Y-69749242D01*
X133884117Y-70729857D01*
X132119011Y-70377154D01*
X132314957Y-69396539D01*
X132314957Y-69396539D01*
G37*
D10*
X133491430Y-68101968D03*
D11*
G36*
X132706850Y-67435309D02*
X134471956Y-67788012D01*
X134276010Y-68768627D01*
X132510904Y-68415924D01*
X132706850Y-67435309D01*
X132706850Y-67435309D01*
G37*
D10*
X133883322Y-66140739D03*
D11*
G36*
X133098742Y-65474080D02*
X134863848Y-65826783D01*
X134667902Y-66807398D01*
X132902796Y-66454695D01*
X133098742Y-65474080D01*
X133098742Y-65474080D01*
G37*
D10*
X134275214Y-64179510D03*
D11*
G36*
X133490634Y-63512851D02*
X135255740Y-63865554D01*
X135059794Y-64846169D01*
X133294688Y-64493466D01*
X133490634Y-63512851D01*
X133490634Y-63512851D01*
G37*
D10*
X134667107Y-62218279D03*
D11*
G36*
X133882527Y-61551620D02*
X135647633Y-61904323D01*
X135451687Y-62884938D01*
X133686581Y-62532235D01*
X133882527Y-61551620D01*
X133882527Y-61551620D01*
G37*
D10*
X133705645Y-59374763D03*
D11*
G36*
X133460270Y-58051022D02*
X134440885Y-58246968D01*
X133951020Y-60698504D01*
X132970405Y-60502558D01*
X133460270Y-58051022D01*
X133460270Y-58051022D01*
G37*
D10*
X131744415Y-58982871D03*
D11*
G36*
X131499040Y-57659130D02*
X132479655Y-57855076D01*
X131989790Y-60306612D01*
X131009175Y-60110666D01*
X131499040Y-57659130D01*
X131499040Y-57659130D01*
G37*
D10*
X129783186Y-58590979D03*
D11*
G36*
X129537811Y-57267238D02*
X130518426Y-57463184D01*
X130028561Y-59914720D01*
X129047946Y-59718774D01*
X129537811Y-57267238D01*
X129537811Y-57267238D01*
G37*
D10*
X127821957Y-58199086D03*
D11*
G36*
X127576582Y-56875345D02*
X128557197Y-57071291D01*
X128067332Y-59522827D01*
X127086717Y-59326881D01*
X127576582Y-56875345D01*
X127576582Y-56875345D01*
G37*
D10*
X125860727Y-57807194D03*
D11*
G36*
X125615352Y-56483453D02*
X126595967Y-56679399D01*
X126106102Y-59130935D01*
X125125487Y-58934989D01*
X125615352Y-56483453D01*
X125615352Y-56483453D01*
G37*
D10*
X123899498Y-57415302D03*
D11*
G36*
X123654123Y-56091561D02*
X124634738Y-56287507D01*
X124144873Y-58739043D01*
X123164258Y-58543097D01*
X123654123Y-56091561D01*
X123654123Y-56091561D01*
G37*
D10*
X121938269Y-57023409D03*
D11*
G36*
X121692894Y-55699668D02*
X122673509Y-55895614D01*
X122183644Y-58347150D01*
X121203029Y-58151204D01*
X121692894Y-55699668D01*
X121692894Y-55699668D01*
G37*
D10*
X119977039Y-56631517D03*
D11*
G36*
X119731664Y-55307776D02*
X120712279Y-55503722D01*
X120222414Y-57955258D01*
X119241799Y-57759312D01*
X119731664Y-55307776D01*
X119731664Y-55307776D01*
G37*
G04 #@! TD*
M02*
