G04 #@! TF.GenerationSoftware,KiCad,Pcbnew,(5.0.0-3-g5ebb6b6)*
G04 #@! TF.CreationDate,2019-01-19T11:57:15+01:00*
G04 #@! TF.ProjectId,Securityfest_2019_badge_beta,5365637572697479666573745F323031,rev?*
G04 #@! TF.SameCoordinates,Original*
G04 #@! TF.FileFunction,Copper,L2,Bot,Signal*
G04 #@! TF.FilePolarity,Positive*
%FSLAX46Y46*%
G04 Gerber Fmt 4.6, Leading zero omitted, Abs format (unit mm)*
G04 Created by KiCad (PCBNEW (5.0.0-3-g5ebb6b6)) date 2019 January 19, Saturday 11:57:15*
%MOMM*%
%LPD*%
G01*
G04 APERTURE LIST*
G04 #@! TA.AperFunction,ComponentPad*
%ADD10C,2.000000*%
G04 #@! TD*
G04 #@! TA.AperFunction,ComponentPad*
%ADD11R,1.700000X1.700000*%
G04 #@! TD*
G04 #@! TA.AperFunction,ComponentPad*
%ADD12C,1.700000*%
G04 #@! TD*
G04 #@! TA.AperFunction,Conductor*
%ADD13C,0.100000*%
G04 #@! TD*
G04 #@! TA.AperFunction,Conductor*
%ADD14C,1.700000*%
G04 #@! TD*
G04 #@! TA.AperFunction,ComponentPad*
%ADD15O,1.800000X1.150000*%
G04 #@! TD*
G04 #@! TA.AperFunction,ComponentPad*
%ADD16O,2.000000X1.450000*%
G04 #@! TD*
G04 #@! TA.AperFunction,ComponentPad*
%ADD17C,1.900000*%
G04 #@! TD*
G04 #@! TA.AperFunction,ViaPad*
%ADD18C,2.000000*%
G04 #@! TD*
G04 #@! TA.AperFunction,SMDPad,CuDef*
%ADD19R,1.500000X3.000000*%
G04 #@! TD*
G04 #@! TA.AperFunction,WasherPad*
%ADD20O,2.000000X4.500000*%
G04 #@! TD*
G04 #@! TA.AperFunction,SMDPad,CuDef*
%ADD21C,1.000000*%
G04 #@! TD*
G04 #@! TA.AperFunction,ViaPad*
%ADD22C,0.800000*%
G04 #@! TD*
G04 #@! TA.AperFunction,Conductor*
%ADD23C,0.250000*%
G04 #@! TD*
G04 APERTURE END LIST*
D10*
G04 #@! TO.P,SW3,1*
G04 #@! TO.N,GND*
X185570000Y-69850000D03*
G04 #@! TO.P,SW3,2*
G04 #@! TO.N,Net-(SW3-Pad2)*
X185570000Y-74350000D03*
G04 #@! TO.P,SW3,1*
G04 #@! TO.N,GND*
X179070000Y-69850000D03*
G04 #@! TO.P,SW3,2*
G04 #@! TO.N,Net-(SW3-Pad2)*
X179070000Y-74350000D03*
G04 #@! TD*
D11*
G04 #@! TO.P,GPIO16,1*
G04 #@! TO.N,Net-(J3-Pad1)*
X127000000Y-54610000D03*
G04 #@! TD*
D12*
G04 #@! TO.P,TX/RX,1*
G04 #@! TO.N,Net-(J4-Pad1)*
X118110000Y-68580000D03*
D13*
G04 #@! TD*
G04 #@! TO.N,Net-(J4-Pad1)*
G04 #@! TO.C,TX/RX*
G36*
X117113429Y-69252195D02*
X117437805Y-67583429D01*
X119106571Y-67907805D01*
X118782195Y-69576571D01*
X117113429Y-69252195D01*
X117113429Y-69252195D01*
G37*
D12*
G04 #@! TO.P,TX/RX,2*
G04 #@! TO.N,Net-(J4-Pad2)*
X120603333Y-69064655D03*
D14*
G04 #@! TD*
G04 #@! TO.N,Net-(J4-Pad2)*
G04 #@! TO.C,TX/RX*
X120603333Y-69064655D02*
X120603333Y-69064655D01*
D15*
G04 #@! TO.P,J1,6*
G04 #@! TO.N,N/C*
X186100000Y-58355000D03*
X186100000Y-66105000D03*
D16*
X182300000Y-58505000D03*
X182300000Y-65955000D03*
G04 #@! TD*
D17*
G04 #@! TO.P,S1,1*
G04 #@! TO.N,+3V3*
X133350000Y-51800000D03*
D13*
G04 #@! TD*
G04 #@! TO.N,+3V3*
G04 #@! TO.C,S1*
G36*
X132719264Y-52986243D02*
X132163757Y-51169264D01*
X133980736Y-50613757D01*
X134536243Y-52430736D01*
X132719264Y-52986243D01*
X132719264Y-52986243D01*
G37*
D17*
G04 #@! TO.P,S1,2*
G04 #@! TO.N,/3.3V*
X135740762Y-51069071D03*
G04 #@! TO.P,S1,3*
G04 #@! TO.N,Net-(S1-Pad3)*
X138131524Y-50338141D03*
G04 #@! TD*
G04 #@! TO.P,S2,3*
G04 #@! TO.N,GND*
X115339558Y-78929262D03*
G04 #@! TO.P,S2,2*
G04 #@! TO.N,Net-(R14-Pad1)*
X114819779Y-81374631D03*
G04 #@! TO.P,S2,1*
G04 #@! TO.N,+3V3*
X114300000Y-83820000D03*
D13*
G04 #@! TD*
G04 #@! TO.N,+3V3*
G04 #@! TO.C,S2*
G36*
X115031724Y-84946756D02*
X113173244Y-84551724D01*
X113568276Y-82693244D01*
X115426756Y-83088276D01*
X115031724Y-84946756D01*
X115031724Y-84946756D01*
G37*
D10*
G04 #@! TO.P,SW1,1*
G04 #@! TO.N,Net-(R6-Pad1)*
X128420000Y-88900000D03*
G04 #@! TO.P,SW1,2*
G04 #@! TO.N,Net-(R4-Pad2)*
X128420000Y-93400000D03*
G04 #@! TO.P,SW1,1*
G04 #@! TO.N,Net-(R6-Pad1)*
X121920000Y-88900000D03*
G04 #@! TO.P,SW1,2*
G04 #@! TO.N,Net-(R4-Pad2)*
X121920000Y-93400000D03*
G04 #@! TD*
G04 #@! TO.P,SW2,2*
G04 #@! TO.N,Net-(R5-Pad2)*
X177800000Y-93400000D03*
G04 #@! TO.P,SW2,1*
G04 #@! TO.N,Net-(R6-Pad1)*
X177800000Y-88900000D03*
G04 #@! TO.P,SW2,2*
G04 #@! TO.N,Net-(R5-Pad2)*
X184300000Y-93400000D03*
G04 #@! TO.P,SW2,1*
G04 #@! TO.N,Net-(R6-Pad1)*
X184300000Y-88900000D03*
G04 #@! TD*
D18*
G04 #@! TO.N,*
G04 #@! TO.C,U3*
X169650000Y-120130000D03*
D19*
G04 #@! TD*
G04 #@! TO.P,U3,*
G04 #@! TO.N,*
X171400000Y-90130000D03*
G04 #@! TO.P,U3,*
G04 #@! TO.N,*
X171400000Y-110130000D03*
X133400000Y-110130000D03*
X133400000Y-90130000D03*
D20*
X172650000Y-110130000D03*
X132150000Y-110130000D03*
X172650000Y-90130000D03*
X132150000Y-90130000D03*
D18*
G04 #@! TD*
G04 #@! TO.N,*
G04 #@! TO.C,U3*
X135150000Y-93630000D03*
D21*
G04 #@! TO.P,U4,22*
G04 #@! TO.N,Net-(J4-Pad1)*
X116998658Y-71536860D03*
D13*
G04 #@! TD*
G04 #@! TO.N,Net-(J4-Pad1)*
G04 #@! TO.C,U4*
G36*
X116753283Y-70213119D02*
X117733898Y-70409065D01*
X117244033Y-72860601D01*
X116263418Y-72664655D01*
X116753283Y-70213119D01*
X116753283Y-70213119D01*
G37*
D21*
G04 #@! TO.P,U4,21*
G04 #@! TO.N,Net-(J4-Pad2)*
X118959887Y-71928752D03*
D13*
G04 #@! TD*
G04 #@! TO.N,Net-(J4-Pad2)*
G04 #@! TO.C,U4*
G36*
X118714512Y-70605011D02*
X119695127Y-70800957D01*
X119205262Y-73252493D01*
X118224647Y-73056547D01*
X118714512Y-70605011D01*
X118714512Y-70605011D01*
G37*
D21*
G04 #@! TO.P,U4,20*
G04 #@! TO.N,Net-(R12-Pad2)*
X120921117Y-72320643D03*
D13*
G04 #@! TD*
G04 #@! TO.N,Net-(R12-Pad2)*
G04 #@! TO.C,U4*
G36*
X120675742Y-70996902D02*
X121656357Y-71192848D01*
X121166492Y-73644384D01*
X120185877Y-73448438D01*
X120675742Y-70996902D01*
X120675742Y-70996902D01*
G37*
D21*
G04 #@! TO.P,U4,19*
G04 #@! TO.N,Net-(R13-Pad2)*
X122882346Y-72712537D03*
D13*
G04 #@! TD*
G04 #@! TO.N,Net-(R13-Pad2)*
G04 #@! TO.C,U4*
G36*
X122636971Y-71388796D02*
X123617586Y-71584742D01*
X123127721Y-74036278D01*
X122147106Y-73840332D01*
X122636971Y-71388796D01*
X122636971Y-71388796D01*
G37*
D21*
G04 #@! TO.P,U4,18*
G04 #@! TO.N,Net-(R14-Pad2)*
X124843575Y-73104429D03*
D13*
G04 #@! TD*
G04 #@! TO.N,Net-(R14-Pad2)*
G04 #@! TO.C,U4*
G36*
X124598200Y-71780688D02*
X125578815Y-71976634D01*
X125088950Y-74428170D01*
X124108335Y-74232224D01*
X124598200Y-71780688D01*
X124598200Y-71780688D01*
G37*
D21*
G04 #@! TO.P,U4,17*
G04 #@! TO.N,Net-(R15-Pad2)*
X126804805Y-73496321D03*
D13*
G04 #@! TD*
G04 #@! TO.N,Net-(R15-Pad2)*
G04 #@! TO.C,U4*
G36*
X126559430Y-72172580D02*
X127540045Y-72368526D01*
X127050180Y-74820062D01*
X126069565Y-74624116D01*
X126559430Y-72172580D01*
X126559430Y-72172580D01*
G37*
D21*
G04 #@! TO.P,U4,16*
G04 #@! TO.N,Net-(R16-Pad2)*
X128766034Y-73888214D03*
D13*
G04 #@! TD*
G04 #@! TO.N,Net-(R16-Pad2)*
G04 #@! TO.C,U4*
G36*
X128520659Y-72564473D02*
X129501274Y-72760419D01*
X129011409Y-75211955D01*
X128030794Y-75016009D01*
X128520659Y-72564473D01*
X128520659Y-72564473D01*
G37*
D21*
G04 #@! TO.P,U4,15*
G04 #@! TO.N,GND*
X130727263Y-74280106D03*
D13*
G04 #@! TD*
G04 #@! TO.N,GND*
G04 #@! TO.C,U4*
G36*
X130481888Y-72956365D02*
X131462503Y-73152311D01*
X130972638Y-75603847D01*
X129992023Y-75407901D01*
X130481888Y-72956365D01*
X130481888Y-72956365D01*
G37*
D21*
G04 #@! TO.P,U4,8*
G04 #@! TO.N,+3V3*
X133705645Y-59374763D03*
D13*
G04 #@! TD*
G04 #@! TO.N,+3V3*
G04 #@! TO.C,U4*
G36*
X133460270Y-58051022D02*
X134440885Y-58246968D01*
X133951020Y-60698504D01*
X132970405Y-60502558D01*
X133460270Y-58051022D01*
X133460270Y-58051022D01*
G37*
D21*
G04 #@! TO.P,U4,7*
G04 #@! TO.N,Net-(R11-Pad1)*
X131744415Y-58982871D03*
D13*
G04 #@! TD*
G04 #@! TO.N,Net-(R11-Pad1)*
G04 #@! TO.C,U4*
G36*
X131499040Y-57659130D02*
X132479655Y-57855076D01*
X131989790Y-60306612D01*
X131009175Y-60110666D01*
X131499040Y-57659130D01*
X131499040Y-57659130D01*
G37*
D21*
G04 #@! TO.P,U4,6*
G04 #@! TO.N,Net-(R10-Pad1)*
X129783186Y-58590979D03*
D13*
G04 #@! TD*
G04 #@! TO.N,Net-(R10-Pad1)*
G04 #@! TO.C,U4*
G36*
X129537811Y-57267238D02*
X130518426Y-57463184D01*
X130028561Y-59914720D01*
X129047946Y-59718774D01*
X129537811Y-57267238D01*
X129537811Y-57267238D01*
G37*
D21*
G04 #@! TO.P,U4,5*
G04 #@! TO.N,Net-(R9-Pad1)*
X127821957Y-58199086D03*
D13*
G04 #@! TD*
G04 #@! TO.N,Net-(R9-Pad1)*
G04 #@! TO.C,U4*
G36*
X127576582Y-56875345D02*
X128557197Y-57071291D01*
X128067332Y-59522827D01*
X127086717Y-59326881D01*
X127576582Y-56875345D01*
X127576582Y-56875345D01*
G37*
D21*
G04 #@! TO.P,U4,4*
G04 #@! TO.N,Net-(J3-Pad1)*
X125860727Y-57807194D03*
D13*
G04 #@! TD*
G04 #@! TO.N,Net-(J3-Pad1)*
G04 #@! TO.C,U4*
G36*
X125615352Y-56483453D02*
X126595967Y-56679399D01*
X126106102Y-59130935D01*
X125125487Y-58934989D01*
X125615352Y-56483453D01*
X125615352Y-56483453D01*
G37*
D21*
G04 #@! TO.P,U4,3*
G04 #@! TO.N,Net-(R8-Pad1)*
X123899498Y-57415302D03*
D13*
G04 #@! TD*
G04 #@! TO.N,Net-(R8-Pad1)*
G04 #@! TO.C,U4*
G36*
X123654123Y-56091561D02*
X124634738Y-56287507D01*
X124144873Y-58739043D01*
X123164258Y-58543097D01*
X123654123Y-56091561D01*
X123654123Y-56091561D01*
G37*
D21*
G04 #@! TO.P,U4,2*
G04 #@! TO.N,Net-(R6-Pad1)*
X121938269Y-57023409D03*
D13*
G04 #@! TD*
G04 #@! TO.N,Net-(R6-Pad1)*
G04 #@! TO.C,U4*
G36*
X121692894Y-55699668D02*
X122673509Y-55895614D01*
X122183644Y-58347150D01*
X121203029Y-58151204D01*
X121692894Y-55699668D01*
X121692894Y-55699668D01*
G37*
D21*
G04 #@! TO.P,U4,1*
G04 #@! TO.N,Net-(SW3-Pad2)*
X119977039Y-56631517D03*
D13*
G04 #@! TD*
G04 #@! TO.N,Net-(SW3-Pad2)*
G04 #@! TO.C,U4*
G36*
X119731664Y-55307776D02*
X120712279Y-55503722D01*
X120222414Y-57955258D01*
X119241799Y-57759312D01*
X119731664Y-55307776D01*
X119731664Y-55307776D01*
G37*
D22*
G04 #@! TO.N,Net-(C1-Pad2)*
X156210000Y-50065000D03*
X174767817Y-50307817D03*
G04 #@! TO.N,GND*
X134620000Y-74930000D03*
X130727263Y-74280106D03*
X166370000Y-48260000D03*
X169811067Y-46350934D03*
G04 #@! TO.N,/3.3V*
X144780000Y-49530000D03*
G04 #@! TO.N,+3V3*
X128270000Y-80010000D03*
X130810000Y-80010000D03*
X133705645Y-59374763D03*
X125730000Y-71259469D03*
X122974459Y-62038676D03*
G04 #@! TO.N,Net-(R4-Pad2)*
X130810000Y-81280000D03*
X128420000Y-93400000D03*
G04 #@! TO.N,Net-(R6-Pad1)*
X123190000Y-82550000D03*
X147320000Y-86360000D03*
X177800000Y-88900000D03*
G04 #@! TO.N,Net-(R8-Pad1)*
X123899498Y-57415302D03*
G04 #@! TO.N,Net-(R9-Pad1)*
X127821957Y-58199086D03*
G04 #@! TO.N,Net-(R10-Pad1)*
X129783186Y-58590979D03*
G04 #@! TO.N,Net-(R10-Pad2)*
X138430000Y-68580000D03*
X153400000Y-90130000D03*
G04 #@! TO.N,Net-(R11-Pad2)*
X139700000Y-67310000D03*
X154400000Y-90130000D03*
G04 #@! TO.N,Net-(R11-Pad1)*
X131744415Y-58982871D03*
G04 #@! TO.N,Net-(R12-Pad1)*
X120650000Y-78740000D03*
X152400000Y-90130000D03*
G04 #@! TO.N,Net-(R12-Pad2)*
X120921117Y-72320644D03*
G04 #@! TO.N,Net-(R13-Pad2)*
X122882346Y-72712537D03*
G04 #@! TO.N,Net-(R13-Pad1)*
X118110000Y-85090000D03*
X118110000Y-80010000D03*
G04 #@! TO.N,Net-(R14-Pad2)*
X124843575Y-73104429D03*
G04 #@! TO.N,Net-(R15-Pad2)*
X126804805Y-73496321D03*
G04 #@! TO.N,Net-(R16-Pad2)*
X128766034Y-73888214D03*
G04 #@! TO.N,Net-(SW3-Pad2)*
X179070000Y-74350000D03*
G04 #@! TD*
D23*
G04 #@! TO.N,Net-(C1-Pad2)*
X174525000Y-50065000D02*
X174767817Y-50307817D01*
X156210000Y-50065000D02*
X174525000Y-50065000D01*
G04 #@! TO.N,GND*
X133970106Y-74280106D02*
X130727263Y-74280106D01*
X134620000Y-74930000D02*
X133970106Y-74280106D01*
X168279066Y-46350934D02*
X169811067Y-46350934D01*
X166370000Y-48260000D02*
X168279066Y-46350934D01*
G04 #@! TO.N,/3.3V*
X136690761Y-52019070D02*
X142290930Y-52019070D01*
X142290930Y-52019070D02*
X144780000Y-49530000D01*
X135740762Y-51069071D02*
X136690761Y-52019070D01*
G04 #@! TO.N,Net-(J3-Pad1)*
X126325000Y-54610000D02*
X127000000Y-54610000D01*
X127000000Y-56667921D02*
X125860727Y-57807194D01*
X127000000Y-54610000D02*
X127000000Y-56667921D01*
G04 #@! TO.N,Net-(J4-Pad1)*
X116840000Y-71695518D02*
X116998658Y-71536860D01*
X116998658Y-69691342D02*
X118110000Y-68580000D01*
X116998658Y-71536860D02*
X116998658Y-69691342D01*
G04 #@! TO.N,Net-(J4-Pad2)*
X120603333Y-70285306D02*
X120603333Y-69064655D01*
X118959887Y-71928752D02*
X120603333Y-70285306D01*
G04 #@! TO.N,+3V3*
X133350000Y-59019118D02*
X133705645Y-59374763D01*
X133350000Y-51800000D02*
X133350000Y-59019118D01*
X128270000Y-80010000D02*
X130810000Y-80010000D01*
X125730000Y-64794217D02*
X122974459Y-62038676D01*
X125730000Y-71259469D02*
X125730000Y-64794217D01*
G04 #@! TO.N,Net-(R4-Pad2)*
X130810000Y-91010000D02*
X128420000Y-93400000D01*
X130810000Y-81280000D02*
X130810000Y-91010000D01*
G04 #@! TO.N,Net-(R6-Pad1)*
X176800001Y-89899999D02*
X177800000Y-88900000D01*
X173994990Y-92705010D02*
X176800001Y-89899999D01*
X153665010Y-92705010D02*
X173994990Y-92705010D01*
X147320000Y-86360000D02*
X153665010Y-92705010D01*
X121938269Y-60805171D02*
X121938269Y-58398119D01*
X115938408Y-66805032D02*
X121938269Y-60805171D01*
X115938408Y-71960700D02*
X115938408Y-66805032D01*
X114300000Y-74754934D02*
X114600096Y-73299012D01*
X114300000Y-74930000D02*
X114300000Y-74754934D01*
X114600096Y-73299012D02*
X115938408Y-71960700D01*
X120552096Y-81182096D02*
X114300000Y-74930000D01*
X121938269Y-58398119D02*
X121938269Y-57023409D01*
X121822096Y-81182096D02*
X120552096Y-81182096D01*
X123190000Y-82550000D02*
X121822096Y-81182096D01*
G04 #@! TO.N,Net-(R10-Pad2)*
X153400000Y-83550000D02*
X153400000Y-90130000D01*
X138430000Y-68580000D02*
X153400000Y-83550000D01*
G04 #@! TO.N,Net-(R11-Pad2)*
X154400000Y-82010000D02*
X154400000Y-90130000D01*
X139700000Y-67310000D02*
X154400000Y-82010000D01*
G04 #@! TO.N,Net-(R12-Pad1)*
X141010000Y-78740000D02*
X152400000Y-90130000D01*
X120650000Y-78740000D02*
X141010000Y-78740000D01*
G04 #@! TO.N,Net-(R13-Pad1)*
X118110000Y-85090000D02*
X118110000Y-80010000D01*
G04 #@! TO.N,Net-(SW3-Pad2)*
X134068387Y-48804999D02*
X149714999Y-48804999D01*
X130308025Y-52565361D02*
X134068387Y-48804999D01*
X124043195Y-52565361D02*
X130308025Y-52565361D01*
X119977039Y-56631517D02*
X124043195Y-52565361D01*
X179070000Y-74350000D02*
X174680000Y-74350000D01*
X149714999Y-49384999D02*
X149714999Y-48804999D01*
X174680000Y-74350000D02*
X149714999Y-49384999D01*
G04 #@! TD*
M02*
