G04 #@! TF.GenerationSoftware,KiCad,Pcbnew,(5.0.0-3-g5ebb6b6)*
G04 #@! TF.CreationDate,2019-03-29T08:56:02+01:00*
G04 #@! TF.ProjectId,Securityfest_2019_badge_beta,5365637572697479666573745F323031,rev?*
G04 #@! TF.SameCoordinates,Original*
G04 #@! TF.FileFunction,Legend,Bot*
G04 #@! TF.FilePolarity,Positive*
%FSLAX46Y46*%
G04 Gerber Fmt 4.6, Leading zero omitted, Abs format (unit mm)*
G04 Created by KiCad (PCBNEW (5.0.0-3-g5ebb6b6)) date 2019 March 29, Friday 08:56:02*
%MOMM*%
%LPD*%
G01*
G04 APERTURE LIST*
%ADD10C,0.300000*%
%ADD11C,0.120000*%
%ADD12C,0.150000*%
G04 APERTURE END LIST*
D10*
X162022857Y-106012142D02*
X161808571Y-106083571D01*
X161451428Y-106083571D01*
X161308571Y-106012142D01*
X161237142Y-105940714D01*
X161165714Y-105797857D01*
X161165714Y-105655000D01*
X161237142Y-105512142D01*
X161308571Y-105440714D01*
X161451428Y-105369285D01*
X161737142Y-105297857D01*
X161880000Y-105226428D01*
X161951428Y-105155000D01*
X162022857Y-105012142D01*
X162022857Y-104869285D01*
X161951428Y-104726428D01*
X161880000Y-104655000D01*
X161737142Y-104583571D01*
X161380000Y-104583571D01*
X161165714Y-104655000D01*
X159951428Y-106012142D02*
X160094285Y-106083571D01*
X160380000Y-106083571D01*
X160522857Y-106012142D01*
X160594285Y-105869285D01*
X160594285Y-105297857D01*
X160522857Y-105155000D01*
X160380000Y-105083571D01*
X160094285Y-105083571D01*
X159951428Y-105155000D01*
X159880000Y-105297857D01*
X159880000Y-105440714D01*
X160594285Y-105583571D01*
X158594285Y-106012142D02*
X158737142Y-106083571D01*
X159022857Y-106083571D01*
X159165714Y-106012142D01*
X159237142Y-105940714D01*
X159308571Y-105797857D01*
X159308571Y-105369285D01*
X159237142Y-105226428D01*
X159165714Y-105155000D01*
X159022857Y-105083571D01*
X158737142Y-105083571D01*
X158594285Y-105155000D01*
X157308571Y-105083571D02*
X157308571Y-106083571D01*
X157951428Y-105083571D02*
X157951428Y-105869285D01*
X157880000Y-106012142D01*
X157737142Y-106083571D01*
X157522857Y-106083571D01*
X157380000Y-106012142D01*
X157308571Y-105940714D01*
X156594285Y-106083571D02*
X156594285Y-105083571D01*
X156594285Y-105369285D02*
X156522857Y-105226428D01*
X156451428Y-105155000D01*
X156308571Y-105083571D01*
X156165714Y-105083571D01*
X155665714Y-106083571D02*
X155665714Y-105083571D01*
X155665714Y-104583571D02*
X155737142Y-104655000D01*
X155665714Y-104726428D01*
X155594285Y-104655000D01*
X155665714Y-104583571D01*
X155665714Y-104726428D01*
X155165714Y-105083571D02*
X154594285Y-105083571D01*
X154951428Y-104583571D02*
X154951428Y-105869285D01*
X154880000Y-106012142D01*
X154737142Y-106083571D01*
X154594285Y-106083571D01*
X154237142Y-105083571D02*
X153880000Y-106083571D01*
X153522857Y-105083571D02*
X153880000Y-106083571D01*
X154022857Y-106440714D01*
X154094285Y-106512142D01*
X154237142Y-106583571D01*
X152022857Y-105083571D02*
X151451428Y-105083571D01*
X151808571Y-106083571D02*
X151808571Y-104797857D01*
X151737142Y-104655000D01*
X151594285Y-104583571D01*
X151451428Y-104583571D01*
X150380000Y-106012142D02*
X150522857Y-106083571D01*
X150808571Y-106083571D01*
X150951428Y-106012142D01*
X151022857Y-105869285D01*
X151022857Y-105297857D01*
X150951428Y-105155000D01*
X150808571Y-105083571D01*
X150522857Y-105083571D01*
X150380000Y-105155000D01*
X150308571Y-105297857D01*
X150308571Y-105440714D01*
X151022857Y-105583571D01*
X149737142Y-106012142D02*
X149594285Y-106083571D01*
X149308571Y-106083571D01*
X149165714Y-106012142D01*
X149094285Y-105869285D01*
X149094285Y-105797857D01*
X149165714Y-105655000D01*
X149308571Y-105583571D01*
X149522857Y-105583571D01*
X149665714Y-105512142D01*
X149737142Y-105369285D01*
X149737142Y-105297857D01*
X149665714Y-105155000D01*
X149522857Y-105083571D01*
X149308571Y-105083571D01*
X149165714Y-105155000D01*
X148665714Y-105083571D02*
X148094285Y-105083571D01*
X148451428Y-104583571D02*
X148451428Y-105869285D01*
X148380000Y-106012142D01*
X148237142Y-106083571D01*
X148094285Y-106083571D01*
X146522857Y-104726428D02*
X146451428Y-104655000D01*
X146308571Y-104583571D01*
X145951428Y-104583571D01*
X145808571Y-104655000D01*
X145737142Y-104726428D01*
X145665714Y-104869285D01*
X145665714Y-105012142D01*
X145737142Y-105226428D01*
X146594285Y-106083571D01*
X145665714Y-106083571D01*
X144737142Y-104583571D02*
X144594285Y-104583571D01*
X144451428Y-104655000D01*
X144380000Y-104726428D01*
X144308571Y-104869285D01*
X144237142Y-105155000D01*
X144237142Y-105512142D01*
X144308571Y-105797857D01*
X144380000Y-105940714D01*
X144451428Y-106012142D01*
X144594285Y-106083571D01*
X144737142Y-106083571D01*
X144880000Y-106012142D01*
X144951428Y-105940714D01*
X145022857Y-105797857D01*
X145094285Y-105512142D01*
X145094285Y-105155000D01*
X145022857Y-104869285D01*
X144951428Y-104726428D01*
X144880000Y-104655000D01*
X144737142Y-104583571D01*
X142808571Y-106083571D02*
X143665714Y-106083571D01*
X143237142Y-106083571D02*
X143237142Y-104583571D01*
X143380000Y-104797857D01*
X143522857Y-104940714D01*
X143665714Y-105012142D01*
X142094285Y-106083571D02*
X141808571Y-106083571D01*
X141665714Y-106012142D01*
X141594285Y-105940714D01*
X141451428Y-105726428D01*
X141380000Y-105440714D01*
X141380000Y-104869285D01*
X141451428Y-104726428D01*
X141522857Y-104655000D01*
X141665714Y-104583571D01*
X141951428Y-104583571D01*
X142094285Y-104655000D01*
X142165714Y-104726428D01*
X142237142Y-104869285D01*
X142237142Y-105226428D01*
X142165714Y-105369285D01*
X142094285Y-105440714D01*
X141951428Y-105512142D01*
X141665714Y-105512142D01*
X141522857Y-105440714D01*
X141451428Y-105369285D01*
X141380000Y-105226428D01*
X156415714Y-108633571D02*
X156415714Y-107133571D01*
X155558571Y-108633571D01*
X155558571Y-107133571D01*
X154558571Y-107133571D02*
X154415714Y-107133571D01*
X154272857Y-107205000D01*
X154201428Y-107276428D01*
X154130000Y-107419285D01*
X154058571Y-107705000D01*
X154058571Y-108062142D01*
X154130000Y-108347857D01*
X154201428Y-108490714D01*
X154272857Y-108562142D01*
X154415714Y-108633571D01*
X154558571Y-108633571D01*
X154701428Y-108562142D01*
X154772857Y-108490714D01*
X154844285Y-108347857D01*
X154915714Y-108062142D01*
X154915714Y-107705000D01*
X154844285Y-107419285D01*
X154772857Y-107276428D01*
X154701428Y-107205000D01*
X154558571Y-107133571D01*
X153130000Y-107133571D02*
X152987142Y-107133571D01*
X152844285Y-107205000D01*
X152772857Y-107276428D01*
X152701428Y-107419285D01*
X152630000Y-107705000D01*
X152630000Y-108062142D01*
X152701428Y-108347857D01*
X152772857Y-108490714D01*
X152844285Y-108562142D01*
X152987142Y-108633571D01*
X153130000Y-108633571D01*
X153272857Y-108562142D01*
X153344285Y-108490714D01*
X153415714Y-108347857D01*
X153487142Y-108062142D01*
X153487142Y-107705000D01*
X153415714Y-107419285D01*
X153344285Y-107276428D01*
X153272857Y-107205000D01*
X153130000Y-107133571D01*
X151487142Y-107847857D02*
X151272857Y-107919285D01*
X151201428Y-107990714D01*
X151130000Y-108133571D01*
X151130000Y-108347857D01*
X151201428Y-108490714D01*
X151272857Y-108562142D01*
X151415714Y-108633571D01*
X151987142Y-108633571D01*
X151987142Y-107133571D01*
X151487142Y-107133571D01*
X151344285Y-107205000D01*
X151272857Y-107276428D01*
X151201428Y-107419285D01*
X151201428Y-107562142D01*
X151272857Y-107705000D01*
X151344285Y-107776428D01*
X151487142Y-107847857D01*
X151987142Y-107847857D01*
X149844285Y-108633571D02*
X149844285Y-107847857D01*
X149915714Y-107705000D01*
X150058571Y-107633571D01*
X150344285Y-107633571D01*
X150487142Y-107705000D01*
X149844285Y-108562142D02*
X149987142Y-108633571D01*
X150344285Y-108633571D01*
X150487142Y-108562142D01*
X150558571Y-108419285D01*
X150558571Y-108276428D01*
X150487142Y-108133571D01*
X150344285Y-108062142D01*
X149987142Y-108062142D01*
X149844285Y-107990714D01*
X148487142Y-108633571D02*
X148487142Y-107133571D01*
X148487142Y-108562142D02*
X148630000Y-108633571D01*
X148915714Y-108633571D01*
X149058571Y-108562142D01*
X149130000Y-108490714D01*
X149201428Y-108347857D01*
X149201428Y-107919285D01*
X149130000Y-107776428D01*
X149058571Y-107705000D01*
X148915714Y-107633571D01*
X148630000Y-107633571D01*
X148487142Y-107705000D01*
X147130000Y-107633571D02*
X147130000Y-108847857D01*
X147201428Y-108990714D01*
X147272857Y-109062142D01*
X147415714Y-109133571D01*
X147630000Y-109133571D01*
X147772857Y-109062142D01*
X147130000Y-108562142D02*
X147272857Y-108633571D01*
X147558571Y-108633571D01*
X147701428Y-108562142D01*
X147772857Y-108490714D01*
X147844285Y-108347857D01*
X147844285Y-107919285D01*
X147772857Y-107776428D01*
X147701428Y-107705000D01*
X147558571Y-107633571D01*
X147272857Y-107633571D01*
X147130000Y-107705000D01*
X145844285Y-108562142D02*
X145987142Y-108633571D01*
X146272857Y-108633571D01*
X146415714Y-108562142D01*
X146487142Y-108419285D01*
X146487142Y-107847857D01*
X146415714Y-107705000D01*
X146272857Y-107633571D01*
X145987142Y-107633571D01*
X145844285Y-107705000D01*
X145772857Y-107847857D01*
X145772857Y-107990714D01*
X146487142Y-108133571D01*
D11*
G04 #@! TO.C,U4*
X111626033Y-54432542D02*
X108443868Y-70357724D01*
X108443868Y-70357724D02*
X115916151Y-71850833D01*
X131605986Y-74985972D02*
X132213967Y-75107458D01*
X132213967Y-75107458D02*
X132629373Y-73028555D01*
X134980727Y-61261179D02*
X135396132Y-59182276D01*
X135396132Y-59182276D02*
X134788151Y-59060790D01*
X119098317Y-55925651D02*
X111626033Y-54432542D01*
X119098317Y-55925651D02*
X119217844Y-55327476D01*
D12*
X126612289Y-65185561D02*
X127406119Y-65344184D01*
X127490181Y-65409541D01*
X127527546Y-65465568D01*
X127555580Y-65568291D01*
X127518257Y-65755074D01*
X127452900Y-65839135D01*
X127396873Y-65876501D01*
X127294150Y-65904535D01*
X126500319Y-65745912D01*
X126649906Y-66698450D02*
X127303649Y-66829081D01*
X126322993Y-66390324D02*
X127070085Y-66296806D01*
X126948786Y-66903853D01*
G04 #@! TD*
M02*
