G04 #@! TF.GenerationSoftware,KiCad,Pcbnew,(5.0.0-3-g5ebb6b6)*
G04 #@! TF.CreationDate,2019-01-19T11:57:15+01:00*
G04 #@! TF.ProjectId,Securityfest_2019_badge_beta,5365637572697479666573745F323031,rev?*
G04 #@! TF.SameCoordinates,Original*
G04 #@! TF.FileFunction,Legend,Bot*
G04 #@! TF.FilePolarity,Positive*
%FSLAX46Y46*%
G04 Gerber Fmt 4.6, Leading zero omitted, Abs format (unit mm)*
G04 Created by KiCad (PCBNEW (5.0.0-3-g5ebb6b6)) date 2019 January 19, Saturday 11:57:15*
%MOMM*%
%LPD*%
G01*
G04 APERTURE LIST*
%ADD10C,0.120000*%
%ADD11C,0.010000*%
%ADD12C,0.150000*%
G04 APERTURE END LIST*
D10*
G04 #@! TO.C,U4*
X119098317Y-55925651D02*
X119217844Y-55327476D01*
X119098317Y-55925651D02*
X111626033Y-54432542D01*
X135396132Y-59182276D02*
X134788151Y-59060790D01*
X134980727Y-61261179D02*
X135396132Y-59182276D01*
X132213967Y-75107458D02*
X132629373Y-73028555D01*
X131605986Y-74985972D02*
X132213967Y-75107458D01*
X108443868Y-70357724D02*
X115916151Y-71850833D01*
X111626033Y-54432542D02*
X108443868Y-70357724D01*
D11*
G04 #@! TO.C,G\002A\002A\002A*
G36*
X144985034Y-80787739D02*
X144440262Y-80897299D01*
X143989226Y-81140959D01*
X143646180Y-81503295D01*
X143425382Y-81968884D01*
X143341089Y-82522301D01*
X143340667Y-82566690D01*
X143415756Y-83101675D01*
X143624713Y-83567283D01*
X143943072Y-83947545D01*
X144346367Y-84226492D01*
X144810132Y-84388156D01*
X145309903Y-84416568D01*
X145821213Y-84295760D01*
X145923000Y-84252150D01*
X146381874Y-83951903D01*
X146719988Y-83542205D01*
X146923799Y-83044670D01*
X146981334Y-82563059D01*
X146907921Y-82018143D01*
X146682595Y-81543292D01*
X146436662Y-81248973D01*
X146086126Y-80976735D01*
X145681777Y-80824420D01*
X145185936Y-80780057D01*
X144985034Y-80787739D01*
X144985034Y-80787739D01*
G37*
X144985034Y-80787739D02*
X144440262Y-80897299D01*
X143989226Y-81140959D01*
X143646180Y-81503295D01*
X143425382Y-81968884D01*
X143341089Y-82522301D01*
X143340667Y-82566690D01*
X143415756Y-83101675D01*
X143624713Y-83567283D01*
X143943072Y-83947545D01*
X144346367Y-84226492D01*
X144810132Y-84388156D01*
X145309903Y-84416568D01*
X145821213Y-84295760D01*
X145923000Y-84252150D01*
X146381874Y-83951903D01*
X146719988Y-83542205D01*
X146923799Y-83044670D01*
X146981334Y-82563059D01*
X146907921Y-82018143D01*
X146682595Y-81543292D01*
X146436662Y-81248973D01*
X146086126Y-80976735D01*
X145681777Y-80824420D01*
X145185936Y-80780057D01*
X144985034Y-80787739D01*
G36*
X127776345Y-76104225D02*
X127386668Y-76313509D01*
X127103762Y-76641433D01*
X126944534Y-77070909D01*
X126915334Y-77385333D01*
X126983645Y-77877857D01*
X127193857Y-78282837D01*
X127508000Y-78583562D01*
X127780711Y-78709024D01*
X128138953Y-78778909D01*
X128505161Y-78783161D01*
X128725566Y-78741428D01*
X129115587Y-78534103D01*
X129405106Y-78203680D01*
X129578986Y-77773298D01*
X129624667Y-77366859D01*
X129550647Y-76891714D01*
X129340277Y-76504349D01*
X129011090Y-76221881D01*
X128580621Y-76061426D01*
X128255884Y-76030667D01*
X127776345Y-76104225D01*
X127776345Y-76104225D01*
G37*
X127776345Y-76104225D02*
X127386668Y-76313509D01*
X127103762Y-76641433D01*
X126944534Y-77070909D01*
X126915334Y-77385333D01*
X126983645Y-77877857D01*
X127193857Y-78282837D01*
X127508000Y-78583562D01*
X127780711Y-78709024D01*
X128138953Y-78778909D01*
X128505161Y-78783161D01*
X128725566Y-78741428D01*
X129115587Y-78534103D01*
X129405106Y-78203680D01*
X129578986Y-77773298D01*
X129624667Y-77366859D01*
X129550647Y-76891714D01*
X129340277Y-76504349D01*
X129011090Y-76221881D01*
X128580621Y-76061426D01*
X128255884Y-76030667D01*
X127776345Y-76104225D01*
G36*
X149556593Y-71720950D02*
X148838146Y-72439397D01*
X149878240Y-72960734D01*
X151076499Y-73650284D01*
X152154086Y-74455929D01*
X153107276Y-75373859D01*
X153932344Y-76400270D01*
X154625563Y-77531352D01*
X154904328Y-78097071D01*
X155052198Y-78410958D01*
X155176228Y-78656737D01*
X155258886Y-78800533D01*
X155280536Y-78823887D01*
X155353995Y-78767698D01*
X155521020Y-78614226D01*
X155756615Y-78387090D01*
X156028827Y-78116902D01*
X156732915Y-77409137D01*
X156509894Y-76969027D01*
X155835981Y-75800089D01*
X155039506Y-74698712D01*
X154139648Y-73683976D01*
X153155586Y-72774962D01*
X152106498Y-71990751D01*
X151011563Y-71350422D01*
X150720786Y-71209418D01*
X150275040Y-71002504D01*
X149556593Y-71720950D01*
X149556593Y-71720950D01*
G37*
X149556593Y-71720950D02*
X148838146Y-72439397D01*
X149878240Y-72960734D01*
X151076499Y-73650284D01*
X152154086Y-74455929D01*
X153107276Y-75373859D01*
X153932344Y-76400270D01*
X154625563Y-77531352D01*
X154904328Y-78097071D01*
X155052198Y-78410958D01*
X155176228Y-78656737D01*
X155258886Y-78800533D01*
X155280536Y-78823887D01*
X155353995Y-78767698D01*
X155521020Y-78614226D01*
X155756615Y-78387090D01*
X156028827Y-78116902D01*
X156732915Y-77409137D01*
X156509894Y-76969027D01*
X155835981Y-75800089D01*
X155039506Y-74698712D01*
X154139648Y-73683976D01*
X153155586Y-72774962D01*
X152106498Y-71990751D01*
X151011563Y-71350422D01*
X150720786Y-71209418D01*
X150275040Y-71002504D01*
X149556593Y-71720950D01*
G36*
X142182738Y-74035200D02*
X141041206Y-74522748D01*
X139992531Y-75148295D01*
X139046232Y-75902437D01*
X138211829Y-76775767D01*
X137498839Y-77758881D01*
X136916782Y-78842372D01*
X136645175Y-79506934D01*
X136388846Y-80209293D01*
X137174918Y-80998646D01*
X137471645Y-81291902D01*
X137727362Y-81535800D01*
X137917860Y-81707889D01*
X138018929Y-81785719D01*
X138026162Y-81788000D01*
X138073353Y-81714813D01*
X138091334Y-81553465D01*
X138140306Y-81143135D01*
X138276597Y-80636457D01*
X138484273Y-80071291D01*
X138747397Y-79485499D01*
X139050035Y-78916940D01*
X139376249Y-78403477D01*
X139473515Y-78269582D01*
X140165521Y-77485136D01*
X140973870Y-76805942D01*
X141872757Y-76248319D01*
X142836379Y-75828584D01*
X143716632Y-75586395D01*
X144010315Y-75517537D01*
X144229511Y-75447692D01*
X144329550Y-75391267D01*
X144330908Y-75388279D01*
X144284343Y-75301611D01*
X144137975Y-75122607D01*
X143913892Y-74876478D01*
X143634181Y-74588431D01*
X143601346Y-74555648D01*
X142845142Y-73802947D01*
X142182738Y-74035200D01*
X142182738Y-74035200D01*
G37*
X142182738Y-74035200D02*
X141041206Y-74522748D01*
X139992531Y-75148295D01*
X139046232Y-75902437D01*
X138211829Y-76775767D01*
X137498839Y-77758881D01*
X136916782Y-78842372D01*
X136645175Y-79506934D01*
X136388846Y-80209293D01*
X137174918Y-80998646D01*
X137471645Y-81291902D01*
X137727362Y-81535800D01*
X137917860Y-81707889D01*
X138018929Y-81785719D01*
X138026162Y-81788000D01*
X138073353Y-81714813D01*
X138091334Y-81553465D01*
X138140306Y-81143135D01*
X138276597Y-80636457D01*
X138484273Y-80071291D01*
X138747397Y-79485499D01*
X139050035Y-78916940D01*
X139376249Y-78403477D01*
X139473515Y-78269582D01*
X140165521Y-77485136D01*
X140973870Y-76805942D01*
X141872757Y-76248319D01*
X142836379Y-75828584D01*
X143716632Y-75586395D01*
X144010315Y-75517537D01*
X144229511Y-75447692D01*
X144329550Y-75391267D01*
X144330908Y-75388279D01*
X144284343Y-75301611D01*
X144137975Y-75122607D01*
X143913892Y-74876478D01*
X143634181Y-74588431D01*
X143601346Y-74555648D01*
X142845142Y-73802947D01*
X142182738Y-74035200D01*
G36*
X146676944Y-74599283D02*
X146339842Y-74933645D01*
X146120479Y-75166950D01*
X146022761Y-75323508D01*
X146050597Y-75427628D01*
X146207894Y-75503618D01*
X146498558Y-75575787D01*
X146845942Y-75650648D01*
X147775299Y-75937544D01*
X148672320Y-76375481D01*
X149513883Y-76946416D01*
X150276864Y-77632308D01*
X150938140Y-78415114D01*
X151461697Y-79252178D01*
X151634477Y-79618109D01*
X151808692Y-80051356D01*
X151969879Y-80508025D01*
X152103573Y-80944222D01*
X152195312Y-81316051D01*
X152230630Y-81579619D01*
X152230667Y-81585805D01*
X152253962Y-81740428D01*
X152295839Y-81788000D01*
X152376523Y-81731006D01*
X152550820Y-81575133D01*
X152794438Y-81343046D01*
X153083086Y-81057408D01*
X153135205Y-81004834D01*
X153909398Y-80221667D01*
X153719649Y-79671334D01*
X153498453Y-79072956D01*
X153271569Y-78565414D01*
X153002071Y-78073113D01*
X152715332Y-77615427D01*
X151974884Y-76632398D01*
X151116466Y-75768096D01*
X150150055Y-75030326D01*
X149085626Y-74426892D01*
X148139197Y-74035177D01*
X147476726Y-73802900D01*
X146676944Y-74599283D01*
X146676944Y-74599283D01*
G37*
X146676944Y-74599283D02*
X146339842Y-74933645D01*
X146120479Y-75166950D01*
X146022761Y-75323508D01*
X146050597Y-75427628D01*
X146207894Y-75503618D01*
X146498558Y-75575787D01*
X146845942Y-75650648D01*
X147775299Y-75937544D01*
X148672320Y-76375481D01*
X149513883Y-76946416D01*
X150276864Y-77632308D01*
X150938140Y-78415114D01*
X151461697Y-79252178D01*
X151634477Y-79618109D01*
X151808692Y-80051356D01*
X151969879Y-80508025D01*
X152103573Y-80944222D01*
X152195312Y-81316051D01*
X152230630Y-81579619D01*
X152230667Y-81585805D01*
X152253962Y-81740428D01*
X152295839Y-81788000D01*
X152376523Y-81731006D01*
X152550820Y-81575133D01*
X152794438Y-81343046D01*
X153083086Y-81057408D01*
X153135205Y-81004834D01*
X153909398Y-80221667D01*
X153719649Y-79671334D01*
X153498453Y-79072956D01*
X153271569Y-78565414D01*
X153002071Y-78073113D01*
X152715332Y-77615427D01*
X151974884Y-76632398D01*
X151116466Y-75768096D01*
X150150055Y-75030326D01*
X149085626Y-74426892D01*
X148139197Y-74035177D01*
X147476726Y-73802900D01*
X146676944Y-74599283D01*
G36*
X120206642Y-78911498D02*
X120184334Y-81707662D01*
X119430131Y-80816498D01*
X118675927Y-79925334D01*
X116461269Y-79925334D01*
X117636611Y-81102929D01*
X118811953Y-82280525D01*
X117630991Y-83664096D01*
X117278677Y-84078241D01*
X116962232Y-84452853D01*
X116698774Y-84767453D01*
X116505423Y-85001561D01*
X116399296Y-85134699D01*
X116386018Y-85153500D01*
X116394968Y-85198521D01*
X116498989Y-85229507D01*
X116718155Y-85248537D01*
X117072541Y-85257690D01*
X117408177Y-85259334D01*
X118494348Y-85259334D01*
X119339341Y-84204953D01*
X120184334Y-83150573D01*
X120208030Y-84204953D01*
X120231726Y-85259334D01*
X123528667Y-85259334D01*
X123534848Y-83798834D01*
X123541661Y-83092972D01*
X123557408Y-82535567D01*
X123585042Y-82105849D01*
X123627516Y-81783047D01*
X123687783Y-81546390D01*
X123768798Y-81375109D01*
X123873513Y-81248432D01*
X123901009Y-81223638D01*
X124206322Y-81056630D01*
X124525509Y-81043074D01*
X124823622Y-81174282D01*
X125065710Y-81441563D01*
X125111379Y-81524565D01*
X125165064Y-81656805D01*
X125206105Y-81825173D01*
X125236766Y-82054945D01*
X125259310Y-82371400D01*
X125276002Y-82799813D01*
X125289105Y-83365462D01*
X125292318Y-83544834D01*
X125321718Y-85259334D01*
X126915334Y-85259334D01*
X126915334Y-79925334D01*
X126111000Y-79925334D01*
X125737250Y-79927853D01*
X125501376Y-79939853D01*
X125371945Y-79968000D01*
X125317523Y-80018958D01*
X125306667Y-80095868D01*
X125296275Y-80189557D01*
X125241476Y-80203810D01*
X125106835Y-80132261D01*
X124953128Y-80032368D01*
X124759086Y-79915637D01*
X124576148Y-79845544D01*
X124350918Y-79810514D01*
X124029998Y-79798970D01*
X123873628Y-79798334D01*
X123278909Y-79839020D01*
X122816301Y-79969316D01*
X122467231Y-80201573D01*
X122213127Y-80548142D01*
X122035568Y-81020818D01*
X122006381Y-81108967D01*
X121982933Y-81125101D01*
X121964570Y-81055787D01*
X121950640Y-80887595D01*
X121940488Y-80607094D01*
X121933464Y-80200854D01*
X121928912Y-79655442D01*
X121926182Y-78957429D01*
X121925715Y-78761167D01*
X121920000Y-76115334D01*
X121074475Y-76115334D01*
X120228950Y-76115333D01*
X120206642Y-78911498D01*
X120206642Y-78911498D01*
G37*
X120206642Y-78911498D02*
X120184334Y-81707662D01*
X119430131Y-80816498D01*
X118675927Y-79925334D01*
X116461269Y-79925334D01*
X117636611Y-81102929D01*
X118811953Y-82280525D01*
X117630991Y-83664096D01*
X117278677Y-84078241D01*
X116962232Y-84452853D01*
X116698774Y-84767453D01*
X116505423Y-85001561D01*
X116399296Y-85134699D01*
X116386018Y-85153500D01*
X116394968Y-85198521D01*
X116498989Y-85229507D01*
X116718155Y-85248537D01*
X117072541Y-85257690D01*
X117408177Y-85259334D01*
X118494348Y-85259334D01*
X119339341Y-84204953D01*
X120184334Y-83150573D01*
X120208030Y-84204953D01*
X120231726Y-85259334D01*
X123528667Y-85259334D01*
X123534848Y-83798834D01*
X123541661Y-83092972D01*
X123557408Y-82535567D01*
X123585042Y-82105849D01*
X123627516Y-81783047D01*
X123687783Y-81546390D01*
X123768798Y-81375109D01*
X123873513Y-81248432D01*
X123901009Y-81223638D01*
X124206322Y-81056630D01*
X124525509Y-81043074D01*
X124823622Y-81174282D01*
X125065710Y-81441563D01*
X125111379Y-81524565D01*
X125165064Y-81656805D01*
X125206105Y-81825173D01*
X125236766Y-82054945D01*
X125259310Y-82371400D01*
X125276002Y-82799813D01*
X125289105Y-83365462D01*
X125292318Y-83544834D01*
X125321718Y-85259334D01*
X126915334Y-85259334D01*
X126915334Y-79925334D01*
X126111000Y-79925334D01*
X125737250Y-79927853D01*
X125501376Y-79939853D01*
X125371945Y-79968000D01*
X125317523Y-80018958D01*
X125306667Y-80095868D01*
X125296275Y-80189557D01*
X125241476Y-80203810D01*
X125106835Y-80132261D01*
X124953128Y-80032368D01*
X124759086Y-79915637D01*
X124576148Y-79845544D01*
X124350918Y-79810514D01*
X124029998Y-79798970D01*
X123873628Y-79798334D01*
X123278909Y-79839020D01*
X122816301Y-79969316D01*
X122467231Y-80201573D01*
X122213127Y-80548142D01*
X122035568Y-81020818D01*
X122006381Y-81108967D01*
X121982933Y-81125101D01*
X121964570Y-81055787D01*
X121950640Y-80887595D01*
X121940488Y-80607094D01*
X121933464Y-80200854D01*
X121928912Y-79655442D01*
X121926182Y-78957429D01*
X121925715Y-78761167D01*
X121920000Y-76115334D01*
X121074475Y-76115334D01*
X120228950Y-76115333D01*
X120206642Y-78911498D01*
G36*
X127423334Y-85259334D02*
X129116667Y-85259334D01*
X129116667Y-79925334D01*
X127423334Y-79925334D01*
X127423334Y-85259334D01*
X127423334Y-85259334D01*
G37*
X127423334Y-85259334D02*
X129116667Y-85259334D01*
X129116667Y-79925334D01*
X127423334Y-79925334D01*
X127423334Y-85259334D01*
G36*
X139467845Y-71278490D02*
X138357509Y-71909988D01*
X137277920Y-72699818D01*
X136242934Y-73637822D01*
X136226585Y-73654207D01*
X135560379Y-74358414D01*
X135003533Y-75032254D01*
X134517263Y-75727379D01*
X134062786Y-76495438D01*
X133983625Y-76641207D01*
X133822735Y-76930438D01*
X133695789Y-77138815D01*
X133619673Y-77239731D01*
X133605415Y-77237167D01*
X133552870Y-77185113D01*
X133384076Y-77151791D01*
X133079802Y-77134802D01*
X132757334Y-77131334D01*
X131910667Y-77131334D01*
X131910667Y-83820000D01*
X129540000Y-83820000D01*
X129540000Y-85259334D01*
X133604000Y-85259334D01*
X133604000Y-77431405D01*
X134304269Y-78128036D01*
X134635277Y-78453000D01*
X134866430Y-78667112D01*
X135014256Y-78782518D01*
X135095286Y-78811361D01*
X135126048Y-78765786D01*
X135128000Y-78733270D01*
X135168847Y-78592046D01*
X135279714Y-78339040D01*
X135443094Y-78007427D01*
X135641479Y-77630383D01*
X135857361Y-77241082D01*
X136073233Y-76872700D01*
X136271586Y-76558411D01*
X136291244Y-76529069D01*
X136941587Y-75680043D01*
X137710859Y-74869533D01*
X138565721Y-74124871D01*
X139472833Y-73473386D01*
X140398855Y-72942409D01*
X140990850Y-72676535D01*
X141219722Y-72570171D01*
X141365408Y-72472683D01*
X141393016Y-72430347D01*
X141336319Y-72339194D01*
X141182256Y-72157869D01*
X140955277Y-71913822D01*
X140716678Y-71671007D01*
X140040023Y-70998322D01*
X139467845Y-71278490D01*
X139467845Y-71278490D01*
G37*
X139467845Y-71278490D02*
X138357509Y-71909988D01*
X137277920Y-72699818D01*
X136242934Y-73637822D01*
X136226585Y-73654207D01*
X135560379Y-74358414D01*
X135003533Y-75032254D01*
X134517263Y-75727379D01*
X134062786Y-76495438D01*
X133983625Y-76641207D01*
X133822735Y-76930438D01*
X133695789Y-77138815D01*
X133619673Y-77239731D01*
X133605415Y-77237167D01*
X133552870Y-77185113D01*
X133384076Y-77151791D01*
X133079802Y-77134802D01*
X132757334Y-77131334D01*
X131910667Y-77131334D01*
X131910667Y-83820000D01*
X129540000Y-83820000D01*
X129540000Y-85259334D01*
X133604000Y-85259334D01*
X133604000Y-77431405D01*
X134304269Y-78128036D01*
X134635277Y-78453000D01*
X134866430Y-78667112D01*
X135014256Y-78782518D01*
X135095286Y-78811361D01*
X135126048Y-78765786D01*
X135128000Y-78733270D01*
X135168847Y-78592046D01*
X135279714Y-78339040D01*
X135443094Y-78007427D01*
X135641479Y-77630383D01*
X135857361Y-77241082D01*
X136073233Y-76872700D01*
X136271586Y-76558411D01*
X136291244Y-76529069D01*
X136941587Y-75680043D01*
X137710859Y-74869533D01*
X138565721Y-74124871D01*
X139472833Y-73473386D01*
X140398855Y-72942409D01*
X140990850Y-72676535D01*
X141219722Y-72570171D01*
X141365408Y-72472683D01*
X141393016Y-72430347D01*
X141336319Y-72339194D01*
X141182256Y-72157869D01*
X140955277Y-71913822D01*
X140716678Y-71671007D01*
X140040023Y-70998322D01*
X139467845Y-71278490D01*
G36*
X158964158Y-79777470D02*
X158437428Y-79878236D01*
X157984931Y-80087966D01*
X157570572Y-80418613D01*
X157528539Y-80460098D01*
X157214643Y-80833240D01*
X156991108Y-81247880D01*
X156841020Y-81745183D01*
X156748163Y-82359500D01*
X156693878Y-82888667D01*
X158526273Y-82888667D01*
X159153973Y-82888475D01*
X159629734Y-82892411D01*
X159970931Y-82907239D01*
X160194936Y-82939722D01*
X160319124Y-82996627D01*
X160360868Y-83084718D01*
X160337543Y-83210759D01*
X160266523Y-83381515D01*
X160194569Y-83538233D01*
X159981026Y-83887118D01*
X159713367Y-84084501D01*
X159365627Y-84145857D01*
X159192970Y-84135186D01*
X158901244Y-84075577D01*
X158685746Y-83946437D01*
X158525721Y-83781338D01*
X158258854Y-83472617D01*
X157530760Y-83574472D01*
X157137492Y-83639435D01*
X156900425Y-83715818D01*
X156806748Y-83825484D01*
X156843651Y-83990292D01*
X156998325Y-84232104D01*
X157080650Y-84342585D01*
X157545216Y-84822008D01*
X158098298Y-85163975D01*
X158722490Y-85363148D01*
X159400388Y-85414186D01*
X160114587Y-85311749D01*
X160182445Y-85294176D01*
X160759828Y-85081830D01*
X161216743Y-84776183D01*
X161582416Y-84352175D01*
X161850801Y-83863739D01*
X161967760Y-83583180D01*
X162037064Y-83331579D01*
X162069896Y-83046170D01*
X162077439Y-82664187D01*
X162077074Y-82593739D01*
X162009078Y-81833354D01*
X161989490Y-81766834D01*
X160273684Y-81766834D01*
X160225633Y-81815588D01*
X160068257Y-81848072D01*
X159782239Y-81866384D01*
X159348260Y-81872625D01*
X159300334Y-81872667D01*
X158863503Y-81868371D01*
X158572293Y-81853640D01*
X158403167Y-81825706D01*
X158332587Y-81781800D01*
X158326667Y-81758188D01*
X158393687Y-81547137D01*
X158564583Y-81307599D01*
X158794115Y-81091320D01*
X159031403Y-80952157D01*
X159262827Y-80880063D01*
X159439553Y-80887020D01*
X159644469Y-80969224D01*
X159871009Y-81128050D01*
X160080939Y-81356880D01*
X160229364Y-81598803D01*
X160273684Y-81766834D01*
X161989490Y-81766834D01*
X161818623Y-81186593D01*
X161508577Y-80656726D01*
X161081813Y-80247021D01*
X160541201Y-79960750D01*
X159889611Y-79801181D01*
X159601214Y-79773717D01*
X158964158Y-79777470D01*
X158964158Y-79777470D01*
G37*
X158964158Y-79777470D02*
X158437428Y-79878236D01*
X157984931Y-80087966D01*
X157570572Y-80418613D01*
X157528539Y-80460098D01*
X157214643Y-80833240D01*
X156991108Y-81247880D01*
X156841020Y-81745183D01*
X156748163Y-82359500D01*
X156693878Y-82888667D01*
X158526273Y-82888667D01*
X159153973Y-82888475D01*
X159629734Y-82892411D01*
X159970931Y-82907239D01*
X160194936Y-82939722D01*
X160319124Y-82996627D01*
X160360868Y-83084718D01*
X160337543Y-83210759D01*
X160266523Y-83381515D01*
X160194569Y-83538233D01*
X159981026Y-83887118D01*
X159713367Y-84084501D01*
X159365627Y-84145857D01*
X159192970Y-84135186D01*
X158901244Y-84075577D01*
X158685746Y-83946437D01*
X158525721Y-83781338D01*
X158258854Y-83472617D01*
X157530760Y-83574472D01*
X157137492Y-83639435D01*
X156900425Y-83715818D01*
X156806748Y-83825484D01*
X156843651Y-83990292D01*
X156998325Y-84232104D01*
X157080650Y-84342585D01*
X157545216Y-84822008D01*
X158098298Y-85163975D01*
X158722490Y-85363148D01*
X159400388Y-85414186D01*
X160114587Y-85311749D01*
X160182445Y-85294176D01*
X160759828Y-85081830D01*
X161216743Y-84776183D01*
X161582416Y-84352175D01*
X161850801Y-83863739D01*
X161967760Y-83583180D01*
X162037064Y-83331579D01*
X162069896Y-83046170D01*
X162077439Y-82664187D01*
X162077074Y-82593739D01*
X162009078Y-81833354D01*
X161989490Y-81766834D01*
X160273684Y-81766834D01*
X160225633Y-81815588D01*
X160068257Y-81848072D01*
X159782239Y-81866384D01*
X159348260Y-81872625D01*
X159300334Y-81872667D01*
X158863503Y-81868371D01*
X158572293Y-81853640D01*
X158403167Y-81825706D01*
X158332587Y-81781800D01*
X158326667Y-81758188D01*
X158393687Y-81547137D01*
X158564583Y-81307599D01*
X158794115Y-81091320D01*
X159031403Y-80952157D01*
X159262827Y-80880063D01*
X159439553Y-80887020D01*
X159644469Y-80969224D01*
X159871009Y-81128050D01*
X160080939Y-81356880D01*
X160229364Y-81598803D01*
X160273684Y-81766834D01*
X161989490Y-81766834D01*
X161818623Y-81186593D01*
X161508577Y-80656726D01*
X161081813Y-80247021D01*
X160541201Y-79960750D01*
X159889611Y-79801181D01*
X159601214Y-79773717D01*
X158964158Y-79777470D01*
G36*
X182930340Y-76907182D02*
X182445574Y-76988228D01*
X181947930Y-77129755D01*
X181486145Y-77315867D01*
X181108955Y-77530667D01*
X180913240Y-77698426D01*
X180846916Y-77785729D01*
X180833449Y-77875451D01*
X180885609Y-78003152D01*
X181016166Y-78204394D01*
X181175039Y-78427516D01*
X181583265Y-78994543D01*
X181744799Y-78815929D01*
X182064352Y-78552968D01*
X182426700Y-78397298D01*
X182801064Y-78343728D01*
X183156667Y-78387067D01*
X183462730Y-78522127D01*
X183688475Y-78743716D01*
X183803125Y-79046644D01*
X183811334Y-79164415D01*
X183788290Y-79367953D01*
X183704735Y-79542191D01*
X183539035Y-79705177D01*
X183269557Y-79874961D01*
X182874667Y-80069594D01*
X182557298Y-80210690D01*
X181877810Y-80536822D01*
X181355377Y-80860285D01*
X180978179Y-81190900D01*
X180734397Y-81538488D01*
X180633747Y-81809167D01*
X180559200Y-81990333D01*
X180480521Y-82033426D01*
X180429435Y-81932048D01*
X180425311Y-81872667D01*
X178727143Y-81872667D01*
X176708142Y-81872667D01*
X176792747Y-81629971D01*
X176984044Y-81281687D01*
X177262496Y-81028808D01*
X177590268Y-80896576D01*
X177887477Y-80899617D01*
X178147085Y-81025176D01*
X178402313Y-81259209D01*
X178598966Y-81548351D01*
X178639185Y-81639834D01*
X178727143Y-81872667D01*
X180425311Y-81872667D01*
X180423840Y-81851500D01*
X180377758Y-81624134D01*
X180259028Y-81315776D01*
X180094735Y-80982283D01*
X179911961Y-80679513D01*
X179763160Y-80488939D01*
X179553099Y-80308012D01*
X179270867Y-80114769D01*
X179112334Y-80023272D01*
X178901114Y-79919927D01*
X178705206Y-79853950D01*
X178476862Y-79817156D01*
X178168332Y-79801362D01*
X177800000Y-79798334D01*
X177384014Y-79802517D01*
X177089145Y-79820613D01*
X176867269Y-79860944D01*
X176670263Y-79931831D01*
X176477529Y-80027004D01*
X175997335Y-80349761D01*
X175634330Y-80759506D01*
X175371854Y-81279926D01*
X175217033Y-81819205D01*
X175154129Y-82077048D01*
X175114015Y-82167441D01*
X175096764Y-82090226D01*
X175096571Y-82084334D01*
X175034158Y-81771924D01*
X174880427Y-81393029D01*
X174662347Y-81002331D01*
X174406887Y-80654512D01*
X174371723Y-80614616D01*
X173931942Y-80245316D01*
X173387581Y-79971697D01*
X172781100Y-79805459D01*
X172154961Y-79758304D01*
X171559932Y-79839751D01*
X171288134Y-79885190D01*
X170901074Y-79916788D01*
X170452514Y-79930956D01*
X170205877Y-79930133D01*
X169258086Y-79914598D01*
X169206334Y-83580212D01*
X168929831Y-83827106D01*
X168609784Y-84027117D01*
X168289356Y-84061739D01*
X167988562Y-83935935D01*
X167849913Y-83819589D01*
X167743793Y-83674412D01*
X167666040Y-83477762D01*
X167612494Y-83206999D01*
X167578992Y-82839481D01*
X167561373Y-82352567D01*
X167555473Y-81723614D01*
X167555334Y-81579053D01*
X167555334Y-79925334D01*
X164168667Y-79925334D01*
X164168667Y-80366208D01*
X163874144Y-80107614D01*
X163620580Y-79932021D01*
X163348462Y-79810434D01*
X163276188Y-79792095D01*
X163034570Y-79768860D01*
X162743106Y-79770425D01*
X162460541Y-79792755D01*
X162245622Y-79831817D01*
X162165406Y-79868372D01*
X162155153Y-79968147D01*
X162168471Y-80193902D01*
X162202389Y-80504381D01*
X162221434Y-80645709D01*
X162275801Y-80997894D01*
X162323065Y-81209465D01*
X162373346Y-81308260D01*
X162436764Y-81322121D01*
X162463680Y-81312176D01*
X162625346Y-81269300D01*
X162883810Y-81230193D01*
X163045583Y-81214338D01*
X163321359Y-81204029D01*
X163501000Y-81241870D01*
X163655663Y-81349782D01*
X163736101Y-81427075D01*
X163880436Y-81596275D01*
X163989620Y-81793684D01*
X164068209Y-82044301D01*
X164120755Y-82373123D01*
X164151814Y-82805150D01*
X164165939Y-83365380D01*
X164168195Y-83798834D01*
X164168667Y-85259334D01*
X165862000Y-85259334D01*
X165872563Y-84222167D01*
X165878841Y-83808762D01*
X165888411Y-83554130D01*
X165902537Y-83447721D01*
X165922486Y-83478985D01*
X165945803Y-83611607D01*
X166104273Y-84180686D01*
X166391722Y-84661018D01*
X166793369Y-85030695D01*
X166976563Y-85139519D01*
X167360671Y-85278941D01*
X167849007Y-85370007D01*
X168381660Y-85405983D01*
X168898719Y-85380136D01*
X168997035Y-85366639D01*
X169587060Y-85226194D01*
X170047285Y-84999654D01*
X170401903Y-84671347D01*
X170636164Y-84304879D01*
X170740820Y-84086916D01*
X170813197Y-83887489D01*
X170860991Y-83664655D01*
X170891895Y-83376470D01*
X170913605Y-82980993D01*
X170922995Y-82741366D01*
X170944815Y-82323187D01*
X170975684Y-81961809D01*
X171011663Y-81693491D01*
X171048811Y-81554493D01*
X171052537Y-81548979D01*
X171253047Y-81386526D01*
X171549966Y-81239416D01*
X171871053Y-81138169D01*
X172089999Y-81110667D01*
X172523819Y-81190374D01*
X172904609Y-81414617D01*
X173208199Y-81761072D01*
X173410420Y-82207420D01*
X173449471Y-82366185D01*
X173452930Y-82779039D01*
X173321575Y-83202193D01*
X173076079Y-83578881D01*
X172968015Y-83688335D01*
X172568797Y-83958568D01*
X172152170Y-84061419D01*
X171714216Y-83997078D01*
X171259500Y-83771312D01*
X170942000Y-83563598D01*
X170942000Y-84331119D01*
X170942001Y-85098641D01*
X171259500Y-85237887D01*
X171617339Y-85333847D01*
X172131003Y-85377274D01*
X172296667Y-85379901D01*
X172699514Y-85371676D01*
X172999852Y-85335357D01*
X173263739Y-85258965D01*
X173485864Y-85164273D01*
X173806693Y-84992398D01*
X174117331Y-84789917D01*
X174265066Y-84673983D01*
X174487905Y-84426908D01*
X174709945Y-84096276D01*
X174903125Y-83734590D01*
X175039386Y-83394358D01*
X175090667Y-83129144D01*
X175090667Y-82888667D01*
X176911000Y-82888667D01*
X177510055Y-82889216D01*
X177960838Y-82892190D01*
X178284411Y-82899579D01*
X178501835Y-82913375D01*
X178634173Y-82935568D01*
X178702486Y-82968149D01*
X178727834Y-83013107D01*
X178731334Y-83060720D01*
X178660823Y-83423272D01*
X178472754Y-83750537D01*
X178202327Y-84003504D01*
X177884738Y-84143163D01*
X177740683Y-84158667D01*
X177377607Y-84105247D01*
X177070869Y-83928025D01*
X176866127Y-83721008D01*
X176651920Y-83469764D01*
X175913627Y-83573046D01*
X175518288Y-83640070D01*
X175268456Y-83709087D01*
X175175657Y-83776854D01*
X175175334Y-83780929D01*
X175231653Y-83949335D01*
X175378367Y-84189908D01*
X175582111Y-84459242D01*
X175809520Y-84713929D01*
X176027229Y-84910563D01*
X176064334Y-84937496D01*
X176572908Y-85196488D01*
X177169605Y-85351799D01*
X177805801Y-85399619D01*
X178432871Y-85336136D01*
X178982761Y-85166226D01*
X179499943Y-84850377D01*
X179933771Y-84411723D01*
X180254123Y-83887113D01*
X180410897Y-83419149D01*
X180479694Y-83100334D01*
X180619296Y-83571402D01*
X180882156Y-84184447D01*
X181270397Y-84686684D01*
X181775132Y-85069123D01*
X182334906Y-85307480D01*
X182657067Y-85372048D01*
X183065149Y-85409565D01*
X183495077Y-85418548D01*
X183882775Y-85397515D01*
X184150000Y-85349493D01*
X184737880Y-85084169D01*
X185297543Y-84654761D01*
X185484080Y-84468850D01*
X185697627Y-84227546D01*
X185854946Y-84020217D01*
X185926488Y-83886429D01*
X185928000Y-83874506D01*
X185868593Y-83763374D01*
X185710433Y-83576717D01*
X185483616Y-83348884D01*
X185398834Y-83270523D01*
X185137857Y-83039953D01*
X184970667Y-82912385D01*
X184869562Y-82872865D01*
X184806836Y-82906439D01*
X184785000Y-82939213D01*
X184528876Y-83287198D01*
X184197579Y-83602109D01*
X183850943Y-83829785D01*
X183753908Y-83872597D01*
X183497142Y-83958088D01*
X183305720Y-83973352D01*
X183092368Y-83921520D01*
X183026127Y-83898711D01*
X182660351Y-83698846D01*
X182431445Y-83402250D01*
X182334090Y-83001112D01*
X182329667Y-82875952D01*
X182344592Y-82601267D01*
X182412647Y-82414301D01*
X182568751Y-82234422D01*
X182633848Y-82173561D01*
X182887876Y-81986875D01*
X183216774Y-81804043D01*
X183438182Y-81707933D01*
X184137690Y-81418203D01*
X184682817Y-81122582D01*
X185088231Y-80805380D01*
X185368602Y-80450906D01*
X185538596Y-80043467D01*
X185612884Y-79567373D01*
X185619029Y-79375000D01*
X185545568Y-78726963D01*
X185327111Y-78152709D01*
X184977509Y-77667354D01*
X184510610Y-77286011D01*
X183940264Y-77023796D01*
X183353493Y-76902512D01*
X182930340Y-76907182D01*
X182930340Y-76907182D01*
G37*
X182930340Y-76907182D02*
X182445574Y-76988228D01*
X181947930Y-77129755D01*
X181486145Y-77315867D01*
X181108955Y-77530667D01*
X180913240Y-77698426D01*
X180846916Y-77785729D01*
X180833449Y-77875451D01*
X180885609Y-78003152D01*
X181016166Y-78204394D01*
X181175039Y-78427516D01*
X181583265Y-78994543D01*
X181744799Y-78815929D01*
X182064352Y-78552968D01*
X182426700Y-78397298D01*
X182801064Y-78343728D01*
X183156667Y-78387067D01*
X183462730Y-78522127D01*
X183688475Y-78743716D01*
X183803125Y-79046644D01*
X183811334Y-79164415D01*
X183788290Y-79367953D01*
X183704735Y-79542191D01*
X183539035Y-79705177D01*
X183269557Y-79874961D01*
X182874667Y-80069594D01*
X182557298Y-80210690D01*
X181877810Y-80536822D01*
X181355377Y-80860285D01*
X180978179Y-81190900D01*
X180734397Y-81538488D01*
X180633747Y-81809167D01*
X180559200Y-81990333D01*
X180480521Y-82033426D01*
X180429435Y-81932048D01*
X180425311Y-81872667D01*
X178727143Y-81872667D01*
X176708142Y-81872667D01*
X176792747Y-81629971D01*
X176984044Y-81281687D01*
X177262496Y-81028808D01*
X177590268Y-80896576D01*
X177887477Y-80899617D01*
X178147085Y-81025176D01*
X178402313Y-81259209D01*
X178598966Y-81548351D01*
X178639185Y-81639834D01*
X178727143Y-81872667D01*
X180425311Y-81872667D01*
X180423840Y-81851500D01*
X180377758Y-81624134D01*
X180259028Y-81315776D01*
X180094735Y-80982283D01*
X179911961Y-80679513D01*
X179763160Y-80488939D01*
X179553099Y-80308012D01*
X179270867Y-80114769D01*
X179112334Y-80023272D01*
X178901114Y-79919927D01*
X178705206Y-79853950D01*
X178476862Y-79817156D01*
X178168332Y-79801362D01*
X177800000Y-79798334D01*
X177384014Y-79802517D01*
X177089145Y-79820613D01*
X176867269Y-79860944D01*
X176670263Y-79931831D01*
X176477529Y-80027004D01*
X175997335Y-80349761D01*
X175634330Y-80759506D01*
X175371854Y-81279926D01*
X175217033Y-81819205D01*
X175154129Y-82077048D01*
X175114015Y-82167441D01*
X175096764Y-82090226D01*
X175096571Y-82084334D01*
X175034158Y-81771924D01*
X174880427Y-81393029D01*
X174662347Y-81002331D01*
X174406887Y-80654512D01*
X174371723Y-80614616D01*
X173931942Y-80245316D01*
X173387581Y-79971697D01*
X172781100Y-79805459D01*
X172154961Y-79758304D01*
X171559932Y-79839751D01*
X171288134Y-79885190D01*
X170901074Y-79916788D01*
X170452514Y-79930956D01*
X170205877Y-79930133D01*
X169258086Y-79914598D01*
X169206334Y-83580212D01*
X168929831Y-83827106D01*
X168609784Y-84027117D01*
X168289356Y-84061739D01*
X167988562Y-83935935D01*
X167849913Y-83819589D01*
X167743793Y-83674412D01*
X167666040Y-83477762D01*
X167612494Y-83206999D01*
X167578992Y-82839481D01*
X167561373Y-82352567D01*
X167555473Y-81723614D01*
X167555334Y-81579053D01*
X167555334Y-79925334D01*
X164168667Y-79925334D01*
X164168667Y-80366208D01*
X163874144Y-80107614D01*
X163620580Y-79932021D01*
X163348462Y-79810434D01*
X163276188Y-79792095D01*
X163034570Y-79768860D01*
X162743106Y-79770425D01*
X162460541Y-79792755D01*
X162245622Y-79831817D01*
X162165406Y-79868372D01*
X162155153Y-79968147D01*
X162168471Y-80193902D01*
X162202389Y-80504381D01*
X162221434Y-80645709D01*
X162275801Y-80997894D01*
X162323065Y-81209465D01*
X162373346Y-81308260D01*
X162436764Y-81322121D01*
X162463680Y-81312176D01*
X162625346Y-81269300D01*
X162883810Y-81230193D01*
X163045583Y-81214338D01*
X163321359Y-81204029D01*
X163501000Y-81241870D01*
X163655663Y-81349782D01*
X163736101Y-81427075D01*
X163880436Y-81596275D01*
X163989620Y-81793684D01*
X164068209Y-82044301D01*
X164120755Y-82373123D01*
X164151814Y-82805150D01*
X164165939Y-83365380D01*
X164168195Y-83798834D01*
X164168667Y-85259334D01*
X165862000Y-85259334D01*
X165872563Y-84222167D01*
X165878841Y-83808762D01*
X165888411Y-83554130D01*
X165902537Y-83447721D01*
X165922486Y-83478985D01*
X165945803Y-83611607D01*
X166104273Y-84180686D01*
X166391722Y-84661018D01*
X166793369Y-85030695D01*
X166976563Y-85139519D01*
X167360671Y-85278941D01*
X167849007Y-85370007D01*
X168381660Y-85405983D01*
X168898719Y-85380136D01*
X168997035Y-85366639D01*
X169587060Y-85226194D01*
X170047285Y-84999654D01*
X170401903Y-84671347D01*
X170636164Y-84304879D01*
X170740820Y-84086916D01*
X170813197Y-83887489D01*
X170860991Y-83664655D01*
X170891895Y-83376470D01*
X170913605Y-82980993D01*
X170922995Y-82741366D01*
X170944815Y-82323187D01*
X170975684Y-81961809D01*
X171011663Y-81693491D01*
X171048811Y-81554493D01*
X171052537Y-81548979D01*
X171253047Y-81386526D01*
X171549966Y-81239416D01*
X171871053Y-81138169D01*
X172089999Y-81110667D01*
X172523819Y-81190374D01*
X172904609Y-81414617D01*
X173208199Y-81761072D01*
X173410420Y-82207420D01*
X173449471Y-82366185D01*
X173452930Y-82779039D01*
X173321575Y-83202193D01*
X173076079Y-83578881D01*
X172968015Y-83688335D01*
X172568797Y-83958568D01*
X172152170Y-84061419D01*
X171714216Y-83997078D01*
X171259500Y-83771312D01*
X170942000Y-83563598D01*
X170942000Y-84331119D01*
X170942001Y-85098641D01*
X171259500Y-85237887D01*
X171617339Y-85333847D01*
X172131003Y-85377274D01*
X172296667Y-85379901D01*
X172699514Y-85371676D01*
X172999852Y-85335357D01*
X173263739Y-85258965D01*
X173485864Y-85164273D01*
X173806693Y-84992398D01*
X174117331Y-84789917D01*
X174265066Y-84673983D01*
X174487905Y-84426908D01*
X174709945Y-84096276D01*
X174903125Y-83734590D01*
X175039386Y-83394358D01*
X175090667Y-83129144D01*
X175090667Y-82888667D01*
X176911000Y-82888667D01*
X177510055Y-82889216D01*
X177960838Y-82892190D01*
X178284411Y-82899579D01*
X178501835Y-82913375D01*
X178634173Y-82935568D01*
X178702486Y-82968149D01*
X178727834Y-83013107D01*
X178731334Y-83060720D01*
X178660823Y-83423272D01*
X178472754Y-83750537D01*
X178202327Y-84003504D01*
X177884738Y-84143163D01*
X177740683Y-84158667D01*
X177377607Y-84105247D01*
X177070869Y-83928025D01*
X176866127Y-83721008D01*
X176651920Y-83469764D01*
X175913627Y-83573046D01*
X175518288Y-83640070D01*
X175268456Y-83709087D01*
X175175657Y-83776854D01*
X175175334Y-83780929D01*
X175231653Y-83949335D01*
X175378367Y-84189908D01*
X175582111Y-84459242D01*
X175809520Y-84713929D01*
X176027229Y-84910563D01*
X176064334Y-84937496D01*
X176572908Y-85196488D01*
X177169605Y-85351799D01*
X177805801Y-85399619D01*
X178432871Y-85336136D01*
X178982761Y-85166226D01*
X179499943Y-84850377D01*
X179933771Y-84411723D01*
X180254123Y-83887113D01*
X180410897Y-83419149D01*
X180479694Y-83100334D01*
X180619296Y-83571402D01*
X180882156Y-84184447D01*
X181270397Y-84686684D01*
X181775132Y-85069123D01*
X182334906Y-85307480D01*
X182657067Y-85372048D01*
X183065149Y-85409565D01*
X183495077Y-85418548D01*
X183882775Y-85397515D01*
X184150000Y-85349493D01*
X184737880Y-85084169D01*
X185297543Y-84654761D01*
X185484080Y-84468850D01*
X185697627Y-84227546D01*
X185854946Y-84020217D01*
X185926488Y-83886429D01*
X185928000Y-83874506D01*
X185868593Y-83763374D01*
X185710433Y-83576717D01*
X185483616Y-83348884D01*
X185398834Y-83270523D01*
X185137857Y-83039953D01*
X184970667Y-82912385D01*
X184869562Y-82872865D01*
X184806836Y-82906439D01*
X184785000Y-82939213D01*
X184528876Y-83287198D01*
X184197579Y-83602109D01*
X183850943Y-83829785D01*
X183753908Y-83872597D01*
X183497142Y-83958088D01*
X183305720Y-83973352D01*
X183092368Y-83921520D01*
X183026127Y-83898711D01*
X182660351Y-83698846D01*
X182431445Y-83402250D01*
X182334090Y-83001112D01*
X182329667Y-82875952D01*
X182344592Y-82601267D01*
X182412647Y-82414301D01*
X182568751Y-82234422D01*
X182633848Y-82173561D01*
X182887876Y-81986875D01*
X183216774Y-81804043D01*
X183438182Y-81707933D01*
X184137690Y-81418203D01*
X184682817Y-81122582D01*
X185088231Y-80805380D01*
X185368602Y-80450906D01*
X185538596Y-80043467D01*
X185612884Y-79567373D01*
X185619029Y-79375000D01*
X185545568Y-78726963D01*
X185327111Y-78152709D01*
X184977509Y-77667354D01*
X184510610Y-77286011D01*
X183940264Y-77023796D01*
X183353493Y-76902512D01*
X182930340Y-76907182D01*
G36*
X144390390Y-77188137D02*
X143486775Y-77397838D01*
X142786223Y-77680918D01*
X141983110Y-78152560D01*
X141301885Y-78725254D01*
X140742674Y-79382376D01*
X140305602Y-80107302D01*
X139990795Y-80883408D01*
X139798379Y-81694069D01*
X139728479Y-82522663D01*
X139781221Y-83352563D01*
X139956730Y-84167147D01*
X140255133Y-84949791D01*
X140676555Y-85683870D01*
X141221120Y-86352760D01*
X141888956Y-86939837D01*
X142680188Y-87428477D01*
X142712437Y-87444755D01*
X143400048Y-87721862D01*
X144160632Y-87913925D01*
X144936386Y-88011428D01*
X145669505Y-88004852D01*
X145923000Y-87973391D01*
X146767407Y-87784060D01*
X147507207Y-87496603D01*
X148184103Y-87089637D01*
X148839797Y-86541780D01*
X148979231Y-86406303D01*
X149351201Y-86017202D01*
X149630154Y-85671586D01*
X149858893Y-85311818D01*
X150019649Y-85005334D01*
X150365636Y-84126693D01*
X150553593Y-83235677D01*
X150580948Y-82590553D01*
X148630904Y-82590553D01*
X148625888Y-83023194D01*
X148607205Y-83335284D01*
X148567056Y-83575505D01*
X148497643Y-83792537D01*
X148403865Y-84007932D01*
X148133204Y-84466250D01*
X147761847Y-84931350D01*
X147343404Y-85342083D01*
X147023667Y-85582300D01*
X146475411Y-85865567D01*
X145891487Y-86029053D01*
X145226495Y-86083890D01*
X144991667Y-86080394D01*
X144580162Y-86057402D01*
X144269859Y-86011506D01*
X143992804Y-85927567D01*
X143681044Y-85790445D01*
X143673032Y-85786596D01*
X143012345Y-85377965D01*
X142462714Y-84848031D01*
X142037181Y-84213571D01*
X141748787Y-83491365D01*
X141684030Y-83227559D01*
X141615954Y-82508475D01*
X141703424Y-81807215D01*
X141932660Y-81143201D01*
X142289881Y-80535851D01*
X142761307Y-80004585D01*
X143333159Y-79568824D01*
X143991655Y-79247986D01*
X144629562Y-79076535D01*
X145340327Y-79035528D01*
X146039950Y-79151150D01*
X146705660Y-79411096D01*
X147314686Y-79803062D01*
X147844258Y-80314741D01*
X148271607Y-80933831D01*
X148352057Y-81088117D01*
X148476231Y-81350383D01*
X148556979Y-81565145D01*
X148603523Y-81782097D01*
X148625088Y-82050933D01*
X148630896Y-82421346D01*
X148630904Y-82590553D01*
X150580948Y-82590553D01*
X150591224Y-82348241D01*
X150486231Y-81480338D01*
X150246318Y-80647921D01*
X149879187Y-79866943D01*
X149392541Y-79153358D01*
X148794083Y-78523119D01*
X148091516Y-77992180D01*
X147292542Y-77576494D01*
X146404864Y-77292014D01*
X146282527Y-77265331D01*
X145319371Y-77144317D01*
X144390390Y-77188137D01*
X144390390Y-77188137D01*
G37*
X144390390Y-77188137D02*
X143486775Y-77397838D01*
X142786223Y-77680918D01*
X141983110Y-78152560D01*
X141301885Y-78725254D01*
X140742674Y-79382376D01*
X140305602Y-80107302D01*
X139990795Y-80883408D01*
X139798379Y-81694069D01*
X139728479Y-82522663D01*
X139781221Y-83352563D01*
X139956730Y-84167147D01*
X140255133Y-84949791D01*
X140676555Y-85683870D01*
X141221120Y-86352760D01*
X141888956Y-86939837D01*
X142680188Y-87428477D01*
X142712437Y-87444755D01*
X143400048Y-87721862D01*
X144160632Y-87913925D01*
X144936386Y-88011428D01*
X145669505Y-88004852D01*
X145923000Y-87973391D01*
X146767407Y-87784060D01*
X147507207Y-87496603D01*
X148184103Y-87089637D01*
X148839797Y-86541780D01*
X148979231Y-86406303D01*
X149351201Y-86017202D01*
X149630154Y-85671586D01*
X149858893Y-85311818D01*
X150019649Y-85005334D01*
X150365636Y-84126693D01*
X150553593Y-83235677D01*
X150580948Y-82590553D01*
X148630904Y-82590553D01*
X148625888Y-83023194D01*
X148607205Y-83335284D01*
X148567056Y-83575505D01*
X148497643Y-83792537D01*
X148403865Y-84007932D01*
X148133204Y-84466250D01*
X147761847Y-84931350D01*
X147343404Y-85342083D01*
X147023667Y-85582300D01*
X146475411Y-85865567D01*
X145891487Y-86029053D01*
X145226495Y-86083890D01*
X144991667Y-86080394D01*
X144580162Y-86057402D01*
X144269859Y-86011506D01*
X143992804Y-85927567D01*
X143681044Y-85790445D01*
X143673032Y-85786596D01*
X143012345Y-85377965D01*
X142462714Y-84848031D01*
X142037181Y-84213571D01*
X141748787Y-83491365D01*
X141684030Y-83227559D01*
X141615954Y-82508475D01*
X141703424Y-81807215D01*
X141932660Y-81143201D01*
X142289881Y-80535851D01*
X142761307Y-80004585D01*
X143333159Y-79568824D01*
X143991655Y-79247986D01*
X144629562Y-79076535D01*
X145340327Y-79035528D01*
X146039950Y-79151150D01*
X146705660Y-79411096D01*
X147314686Y-79803062D01*
X147844258Y-80314741D01*
X148271607Y-80933831D01*
X148352057Y-81088117D01*
X148476231Y-81350383D01*
X148556979Y-81565145D01*
X148603523Y-81782097D01*
X148625088Y-82050933D01*
X148630896Y-82421346D01*
X148630904Y-82590553D01*
X150580948Y-82590553D01*
X150591224Y-82348241D01*
X150486231Y-81480338D01*
X150246318Y-80647921D01*
X149879187Y-79866943D01*
X149392541Y-79153358D01*
X148794083Y-78523119D01*
X148091516Y-77992180D01*
X147292542Y-77576494D01*
X146404864Y-77292014D01*
X146282527Y-77265331D01*
X145319371Y-77144317D01*
X144390390Y-77188137D01*
G36*
X137932767Y-83399871D02*
X137760867Y-83543254D01*
X137518809Y-83765679D01*
X137230446Y-84045878D01*
X137169548Y-84106746D01*
X136386801Y-84892762D01*
X136562097Y-85413121D01*
X137031793Y-86556098D01*
X137636996Y-87610767D01*
X138367595Y-88565158D01*
X139213480Y-89407302D01*
X140164537Y-90125231D01*
X140909075Y-90558676D01*
X141380314Y-90789251D01*
X141835796Y-90989000D01*
X142241127Y-91144562D01*
X142561917Y-91242578D01*
X142741854Y-91270667D01*
X142850892Y-91213327D01*
X143049552Y-91056820D01*
X143310479Y-90824419D01*
X143606322Y-90539395D01*
X143634361Y-90511318D01*
X143916160Y-90222976D01*
X144144119Y-89979662D01*
X144296912Y-89804899D01*
X144353215Y-89722212D01*
X144352263Y-89719388D01*
X144255731Y-89688082D01*
X144040035Y-89637847D01*
X143764000Y-89581936D01*
X142783898Y-89312283D01*
X141835966Y-88891072D01*
X140949704Y-88336059D01*
X140154611Y-87664999D01*
X139637575Y-87098339D01*
X139165172Y-86435834D01*
X138753847Y-85703551D01*
X138425025Y-84948068D01*
X138200130Y-84215964D01*
X138124063Y-83807844D01*
X138081338Y-83560857D01*
X138033815Y-83393957D01*
X138010655Y-83356798D01*
X137932767Y-83399871D01*
X137932767Y-83399871D01*
G37*
X137932767Y-83399871D02*
X137760867Y-83543254D01*
X137518809Y-83765679D01*
X137230446Y-84045878D01*
X137169548Y-84106746D01*
X136386801Y-84892762D01*
X136562097Y-85413121D01*
X137031793Y-86556098D01*
X137636996Y-87610767D01*
X138367595Y-88565158D01*
X139213480Y-89407302D01*
X140164537Y-90125231D01*
X140909075Y-90558676D01*
X141380314Y-90789251D01*
X141835796Y-90989000D01*
X142241127Y-91144562D01*
X142561917Y-91242578D01*
X142741854Y-91270667D01*
X142850892Y-91213327D01*
X143049552Y-91056820D01*
X143310479Y-90824419D01*
X143606322Y-90539395D01*
X143634361Y-90511318D01*
X143916160Y-90222976D01*
X144144119Y-89979662D01*
X144296912Y-89804899D01*
X144353215Y-89722212D01*
X144352263Y-89719388D01*
X144255731Y-89688082D01*
X144040035Y-89637847D01*
X143764000Y-89581936D01*
X142783898Y-89312283D01*
X141835966Y-88891072D01*
X140949704Y-88336059D01*
X140154611Y-87664999D01*
X139637575Y-87098339D01*
X139165172Y-86435834D01*
X138753847Y-85703551D01*
X138425025Y-84948068D01*
X138200130Y-84215964D01*
X138124063Y-83807844D01*
X138081338Y-83560857D01*
X138033815Y-83393957D01*
X138010655Y-83356798D01*
X137932767Y-83399871D01*
G36*
X152248648Y-83385187D02*
X152230667Y-83546535D01*
X152195415Y-83847375D01*
X152099037Y-84254664D01*
X151955595Y-84723129D01*
X151779156Y-85207495D01*
X151583784Y-85662489D01*
X151553912Y-85725000D01*
X151044928Y-86590516D01*
X150397283Y-87394395D01*
X149638091Y-88109525D01*
X148794469Y-88708792D01*
X148294673Y-88983962D01*
X147874771Y-89170130D01*
X147402099Y-89345072D01*
X146924199Y-89494369D01*
X146488613Y-89603600D01*
X146142882Y-89658345D01*
X146059296Y-89662000D01*
X145983249Y-89673668D01*
X145969265Y-89720542D01*
X146030259Y-89820433D01*
X146179147Y-89991146D01*
X146428847Y-90250492D01*
X146642667Y-90466334D01*
X147017826Y-90829148D01*
X147316230Y-91088508D01*
X147526051Y-91234702D01*
X147614662Y-91264481D01*
X147791198Y-91233108D01*
X148051824Y-91159948D01*
X148209000Y-91107288D01*
X149314317Y-90624729D01*
X150339136Y-89999871D01*
X151270930Y-89245505D01*
X152097172Y-88374424D01*
X152805335Y-87399421D01*
X153382894Y-86333287D01*
X153725471Y-85473799D01*
X153926407Y-84883932D01*
X153143709Y-84097966D01*
X152847630Y-83805380D01*
X152592579Y-83562203D01*
X152402827Y-83390935D01*
X152302647Y-83314075D01*
X152295839Y-83312000D01*
X152248648Y-83385187D01*
X152248648Y-83385187D01*
G37*
X152248648Y-83385187D02*
X152230667Y-83546535D01*
X152195415Y-83847375D01*
X152099037Y-84254664D01*
X151955595Y-84723129D01*
X151779156Y-85207495D01*
X151583784Y-85662489D01*
X151553912Y-85725000D01*
X151044928Y-86590516D01*
X150397283Y-87394395D01*
X149638091Y-88109525D01*
X148794469Y-88708792D01*
X148294673Y-88983962D01*
X147874771Y-89170130D01*
X147402099Y-89345072D01*
X146924199Y-89494369D01*
X146488613Y-89603600D01*
X146142882Y-89658345D01*
X146059296Y-89662000D01*
X145983249Y-89673668D01*
X145969265Y-89720542D01*
X146030259Y-89820433D01*
X146179147Y-89991146D01*
X146428847Y-90250492D01*
X146642667Y-90466334D01*
X147017826Y-90829148D01*
X147316230Y-91088508D01*
X147526051Y-91234702D01*
X147614662Y-91264481D01*
X147791198Y-91233108D01*
X148051824Y-91159948D01*
X148209000Y-91107288D01*
X149314317Y-90624729D01*
X150339136Y-89999871D01*
X151270930Y-89245505D01*
X152097172Y-88374424D01*
X152805335Y-87399421D01*
X153382894Y-86333287D01*
X153725471Y-85473799D01*
X153926407Y-84883932D01*
X153143709Y-84097966D01*
X152847630Y-83805380D01*
X152592579Y-83562203D01*
X152402827Y-83390935D01*
X152302647Y-83314075D01*
X152295839Y-83312000D01*
X152248648Y-83385187D01*
G36*
X134287127Y-86990857D02*
X133561667Y-87716757D01*
X133876810Y-88329545D01*
X134602725Y-89560439D01*
X135465858Y-90706638D01*
X136450470Y-91752156D01*
X137540817Y-92681009D01*
X138721159Y-93477211D01*
X139224474Y-93760018D01*
X139519387Y-93906990D01*
X139770304Y-94015059D01*
X139929009Y-94063750D01*
X139941852Y-94064667D01*
X140056421Y-94007332D01*
X140257459Y-93851888D01*
X140515002Y-93623178D01*
X140755807Y-93389876D01*
X141019442Y-93119040D01*
X141227411Y-92894520D01*
X141357262Y-92741312D01*
X141388820Y-92685084D01*
X141301991Y-92638545D01*
X141094061Y-92534358D01*
X140796585Y-92388162D01*
X140456379Y-92222965D01*
X139341908Y-91593835D01*
X138292397Y-90819772D01*
X137330908Y-89919910D01*
X136502211Y-88942334D01*
X136287948Y-88630063D01*
X136034114Y-88217807D01*
X135772441Y-87759174D01*
X135534658Y-87307769D01*
X135534429Y-87307311D01*
X135012588Y-86264956D01*
X134287127Y-86990857D01*
X134287127Y-86990857D01*
G37*
X134287127Y-86990857D02*
X133561667Y-87716757D01*
X133876810Y-88329545D01*
X134602725Y-89560439D01*
X135465858Y-90706638D01*
X136450470Y-91752156D01*
X137540817Y-92681009D01*
X138721159Y-93477211D01*
X139224474Y-93760018D01*
X139519387Y-93906990D01*
X139770304Y-94015059D01*
X139929009Y-94063750D01*
X139941852Y-94064667D01*
X140056421Y-94007332D01*
X140257459Y-93851888D01*
X140515002Y-93623178D01*
X140755807Y-93389876D01*
X141019442Y-93119040D01*
X141227411Y-92894520D01*
X141357262Y-92741312D01*
X141388820Y-92685084D01*
X141301991Y-92638545D01*
X141094061Y-92534358D01*
X140796585Y-92388162D01*
X140456379Y-92222965D01*
X139341908Y-91593835D01*
X138292397Y-90819772D01*
X137330908Y-89919910D01*
X136502211Y-88942334D01*
X136287948Y-88630063D01*
X136034114Y-88217807D01*
X135772441Y-87759174D01*
X135534658Y-87307769D01*
X135534429Y-87307311D01*
X135012588Y-86264956D01*
X134287127Y-86990857D01*
G36*
X155229957Y-86349369D02*
X155136750Y-86541333D01*
X155019556Y-86813379D01*
X154999316Y-86862998D01*
X154769635Y-87353368D01*
X154453917Y-87919343D01*
X154081987Y-88513037D01*
X153683669Y-89086566D01*
X153331334Y-89541012D01*
X152693228Y-90224104D01*
X151932668Y-90891276D01*
X151095543Y-91508298D01*
X150227739Y-92040941D01*
X149490699Y-92405941D01*
X148854960Y-92682307D01*
X149549749Y-93373487D01*
X149835296Y-93647183D01*
X150086980Y-93869397D01*
X150276081Y-94015972D01*
X150369769Y-94063252D01*
X150495269Y-94024364D01*
X150729107Y-93921106D01*
X151031749Y-93771623D01*
X151214276Y-93675701D01*
X152340911Y-92982917D01*
X153406574Y-92154352D01*
X154388196Y-91213509D01*
X155262709Y-90183889D01*
X156007044Y-89088994D01*
X156380636Y-88412339D01*
X156740827Y-87698816D01*
X156032783Y-86987075D01*
X155753560Y-86710003D01*
X155518464Y-86483506D01*
X155352411Y-86331122D01*
X155280536Y-86276377D01*
X155229957Y-86349369D01*
X155229957Y-86349369D01*
G37*
X155229957Y-86349369D02*
X155136750Y-86541333D01*
X155019556Y-86813379D01*
X154999316Y-86862998D01*
X154769635Y-87353368D01*
X154453917Y-87919343D01*
X154081987Y-88513037D01*
X153683669Y-89086566D01*
X153331334Y-89541012D01*
X152693228Y-90224104D01*
X151932668Y-90891276D01*
X151095543Y-91508298D01*
X150227739Y-92040941D01*
X149490699Y-92405941D01*
X148854960Y-92682307D01*
X149549749Y-93373487D01*
X149835296Y-93647183D01*
X150086980Y-93869397D01*
X150276081Y-94015972D01*
X150369769Y-94063252D01*
X150495269Y-94024364D01*
X150729107Y-93921106D01*
X151031749Y-93771623D01*
X151214276Y-93675701D01*
X152340911Y-92982917D01*
X153406574Y-92154352D01*
X154388196Y-91213509D01*
X155262709Y-90183889D01*
X156007044Y-89088994D01*
X156380636Y-88412339D01*
X156740827Y-87698816D01*
X156032783Y-86987075D01*
X155753560Y-86710003D01*
X155518464Y-86483506D01*
X155352411Y-86331122D01*
X155280536Y-86276377D01*
X155229957Y-86349369D01*
G04 #@! TO.C,U4*
D12*
X126612289Y-65185561D02*
X127406119Y-65344184D01*
X127490181Y-65409541D01*
X127527546Y-65465568D01*
X127555580Y-65568291D01*
X127518257Y-65755074D01*
X127452900Y-65839135D01*
X127396873Y-65876501D01*
X127294150Y-65904535D01*
X126500319Y-65745912D01*
X126649906Y-66698450D02*
X127303649Y-66829081D01*
X126322993Y-66390324D02*
X127070085Y-66296806D01*
X126948786Y-66903853D01*
G04 #@! TD*
M02*
