M48
;DRILL file {KiCad (5.0.0-3-g5ebb6b6)} date 2019 January 24, Thursday 19:12:35
;FORMAT={-:-/ absolute / metric / decimal}
FMAT,2
METRIC,TZ
T1C0.800
T2C1.500
T3C3.000
%
G90
G05
M71
T1
X183.35Y-59.73
X183.35Y-64.73
T2
X132.15Y-88.88
X132.15Y-89.38
X132.15Y-90.13
X132.15Y-90.88
X132.15Y-91.38
X132.15Y-108.88
X132.15Y-109.63
X132.15Y-110.13
X132.15Y-110.88
X132.15Y-111.38
X172.65Y-88.88
X172.65Y-89.38
X172.65Y-90.13
X172.65Y-90.63
X172.65Y-91.38
X172.65Y-108.88
X172.65Y-109.38
X172.65Y-110.13
X172.65Y-110.63
X172.65Y-111.38
T3
X158.75Y-44.45
T0
M30
