G04 #@! TF.GenerationSoftware,KiCad,Pcbnew,(5.0.0-3-g5ebb6b6)*
G04 #@! TF.CreationDate,2019-01-31T17:24:29+01:00*
G04 #@! TF.ProjectId,Securityfest_2019_badge_beta,5365637572697479666573745F323031,rev?*
G04 #@! TF.SameCoordinates,Original*
G04 #@! TF.FileFunction,Soldermask,Bot*
G04 #@! TF.FilePolarity,Negative*
%FSLAX46Y46*%
G04 Gerber Fmt 4.6, Leading zero omitted, Abs format (unit mm)*
G04 Created by KiCad (PCBNEW (5.0.0-3-g5ebb6b6)) date 2019 January 31, Thursday 17:24:29*
%MOMM*%
%LPD*%
G01*
G04 APERTURE LIST*
%ADD10C,1.100000*%
%ADD11C,0.100000*%
%ADD12C,2.000000*%
%ADD13R,1.700000X1.700000*%
%ADD14C,1.700000*%
%ADD15C,1.700000*%
%ADD16O,0.800000X0.800000*%
%ADD17O,1.800000X1.150000*%
%ADD18O,2.000000X1.450000*%
%ADD19C,1.900000*%
%ADD20C,1.500000*%
%ADD21R,1.500000X3.000000*%
%ADD22O,2.000000X4.500000*%
%ADD23C,3.000000*%
G04 APERTURE END LIST*
D10*
G04 #@! TO.C,U4*
X120047580Y-56278496D03*
D11*
G36*
X119723783Y-55092049D02*
X120802459Y-55307590D01*
X120371377Y-57464943D01*
X119292701Y-57249402D01*
X119723783Y-55092049D01*
X119723783Y-55092049D01*
G37*
D10*
X122008809Y-56670388D03*
D11*
G36*
X121685012Y-55483941D02*
X122763688Y-55699482D01*
X122332606Y-57856835D01*
X121253930Y-57641294D01*
X121685012Y-55483941D01*
X121685012Y-55483941D01*
G37*
D10*
X123970039Y-57062280D03*
D11*
G36*
X123646242Y-55875833D02*
X124724918Y-56091374D01*
X124293836Y-58248727D01*
X123215160Y-58033186D01*
X123646242Y-55875833D01*
X123646242Y-55875833D01*
G37*
D10*
X125931268Y-57454173D03*
D11*
G36*
X125607471Y-56267726D02*
X126686147Y-56483267D01*
X126255065Y-58640620D01*
X125176389Y-58425079D01*
X125607471Y-56267726D01*
X125607471Y-56267726D01*
G37*
D10*
X127892497Y-57846065D03*
D11*
G36*
X127568700Y-56659618D02*
X128647376Y-56875159D01*
X128216294Y-59032512D01*
X127137618Y-58816971D01*
X127568700Y-56659618D01*
X127568700Y-56659618D01*
G37*
D10*
X129853727Y-58237957D03*
D11*
G36*
X129529930Y-57051510D02*
X130608606Y-57267051D01*
X130177524Y-59424404D01*
X129098848Y-59208863D01*
X129529930Y-57051510D01*
X129529930Y-57051510D01*
G37*
D10*
X131814956Y-58629850D03*
D11*
G36*
X131491159Y-57443403D02*
X132569835Y-57658944D01*
X132138753Y-59816297D01*
X131060077Y-59600756D01*
X131491159Y-57443403D01*
X131491159Y-57443403D01*
G37*
D10*
X133776185Y-59021742D03*
D11*
G36*
X133452388Y-57835295D02*
X134531064Y-58050836D01*
X134099982Y-60208189D01*
X133021306Y-59992648D01*
X133452388Y-57835295D01*
X133452388Y-57835295D01*
G37*
D10*
X130656723Y-74633127D03*
D11*
G36*
X130332926Y-73446680D02*
X131411602Y-73662221D01*
X130980520Y-75819574D01*
X129901844Y-75604033D01*
X130332926Y-73446680D01*
X130332926Y-73446680D01*
G37*
D10*
X128695493Y-74241235D03*
D11*
G36*
X128371696Y-73054788D02*
X129450372Y-73270329D01*
X129019290Y-75427682D01*
X127940614Y-75212141D01*
X128371696Y-73054788D01*
X128371696Y-73054788D01*
G37*
D10*
X126734264Y-73849343D03*
D11*
G36*
X126410467Y-72662896D02*
X127489143Y-72878437D01*
X127058061Y-75035790D01*
X125979385Y-74820249D01*
X126410467Y-72662896D01*
X126410467Y-72662896D01*
G37*
D10*
X124773035Y-73457450D03*
D11*
G36*
X124449238Y-72271003D02*
X125527914Y-72486544D01*
X125096832Y-74643897D01*
X124018156Y-74428356D01*
X124449238Y-72271003D01*
X124449238Y-72271003D01*
G37*
D10*
X122811805Y-73065558D03*
D11*
G36*
X122488008Y-71879111D02*
X123566684Y-72094652D01*
X123135602Y-74252005D01*
X122056926Y-74036464D01*
X122488008Y-71879111D01*
X122488008Y-71879111D01*
G37*
D10*
X120850576Y-72673666D03*
D11*
G36*
X120526779Y-71487219D02*
X121605455Y-71702760D01*
X121174373Y-73860113D01*
X120095697Y-73644572D01*
X120526779Y-71487219D01*
X120526779Y-71487219D01*
G37*
D10*
X118889347Y-72281773D03*
D11*
G36*
X118565550Y-71095326D02*
X119644226Y-71310867D01*
X119213144Y-73468220D01*
X118134468Y-73252679D01*
X118565550Y-71095326D01*
X118565550Y-71095326D01*
G37*
D10*
X116928117Y-71889881D03*
D11*
G36*
X116604320Y-70703434D02*
X117682996Y-70918975D01*
X117251914Y-73076328D01*
X116173238Y-72860787D01*
X116604320Y-70703434D01*
X116604320Y-70703434D01*
G37*
G04 #@! TD*
D12*
G04 #@! TO.C,SW3*
X185570000Y-69850000D03*
X185570000Y-74350000D03*
X179070000Y-69850000D03*
X179070000Y-74350000D03*
G04 #@! TD*
D13*
G04 #@! TO.C,GPIO16*
X127000000Y-54610000D03*
G04 #@! TD*
D14*
G04 #@! TO.C,TX/RX*
X118110000Y-68580000D03*
D11*
G36*
X117113429Y-69252195D02*
X117437805Y-67583429D01*
X119106571Y-67907805D01*
X118782195Y-69576571D01*
X117113429Y-69252195D01*
X117113429Y-69252195D01*
G37*
D14*
X120603333Y-69064655D03*
D15*
X120603333Y-69064655D02*
X120603333Y-69064655D01*
G04 #@! TD*
D16*
G04 #@! TO.C,J1*
X183350000Y-59730000D03*
X183350000Y-64730000D03*
D17*
X186100000Y-58355000D03*
X186100000Y-66105000D03*
D18*
X182300000Y-58505000D03*
X182300000Y-65955000D03*
G04 #@! TD*
D19*
G04 #@! TO.C,S1*
X133350000Y-51800000D03*
D11*
G36*
X132719264Y-52986243D02*
X132163757Y-51169264D01*
X133980736Y-50613757D01*
X134536243Y-52430736D01*
X132719264Y-52986243D01*
X132719264Y-52986243D01*
G37*
D19*
X135740762Y-51069071D03*
X138131524Y-50338141D03*
G04 #@! TD*
G04 #@! TO.C,S2*
X115339558Y-78929262D03*
X114819779Y-81374631D03*
X114300000Y-83820000D03*
D11*
G36*
X115031724Y-84946756D02*
X113173244Y-84551724D01*
X113568276Y-82693244D01*
X115426756Y-83088276D01*
X115031724Y-84946756D01*
X115031724Y-84946756D01*
G37*
G04 #@! TD*
D12*
G04 #@! TO.C,SW1*
X128420000Y-88900000D03*
X128420000Y-93400000D03*
X121920000Y-88900000D03*
X121920000Y-93400000D03*
G04 #@! TD*
G04 #@! TO.C,SW2*
X177800000Y-93400000D03*
X177800000Y-88900000D03*
X184300000Y-93400000D03*
X184300000Y-88900000D03*
G04 #@! TD*
D20*
G04 #@! TO.C,U3*
X172650000Y-110630000D03*
X172650000Y-109380000D03*
X132150000Y-110880000D03*
X132150000Y-109630000D03*
X132150000Y-111380000D03*
X132150000Y-108880000D03*
X132150000Y-91380000D03*
X132150000Y-90880000D03*
X132150000Y-88880000D03*
X132150000Y-89380000D03*
X172650000Y-111380000D03*
X172650000Y-108880000D03*
X172650000Y-90630000D03*
D21*
X171400000Y-90130000D03*
X171400000Y-110130000D03*
X133400000Y-110130000D03*
X133400000Y-90130000D03*
D22*
X172650000Y-110130000D03*
X132150000Y-110130000D03*
X172650000Y-90130000D03*
X132150000Y-90130000D03*
D20*
X172650000Y-88880000D03*
X172650000Y-91380000D03*
X172650000Y-89380000D03*
G04 #@! TD*
D23*
G04 #@! TO.C,REF\002A\002A*
X158750000Y-44450000D03*
G04 #@! TD*
M02*
