G04 #@! TF.GenerationSoftware,KiCad,Pcbnew,(5.0.0-3-g5ebb6b6)*
G04 #@! TF.CreationDate,2019-01-31T17:24:29+01:00*
G04 #@! TF.ProjectId,Securityfest_2019_badge_beta,5365637572697479666573745F323031,rev?*
G04 #@! TF.SameCoordinates,Original*
G04 #@! TF.FileFunction,Copper,L2,Bot,Signal*
G04 #@! TF.FilePolarity,Positive*
%FSLAX46Y46*%
G04 Gerber Fmt 4.6, Leading zero omitted, Abs format (unit mm)*
G04 Created by KiCad (PCBNEW (5.0.0-3-g5ebb6b6)) date 2019 January 31, Thursday 17:24:29*
%MOMM*%
%LPD*%
G01*
G04 APERTURE LIST*
G04 #@! TA.AperFunction,SMDPad,CuDef*
%ADD10C,1.100000*%
G04 #@! TD*
G04 #@! TA.AperFunction,Conductor*
%ADD11C,0.100000*%
G04 #@! TD*
G04 #@! TA.AperFunction,ComponentPad*
%ADD12C,2.000000*%
G04 #@! TD*
G04 #@! TA.AperFunction,ComponentPad*
%ADD13R,1.700000X1.700000*%
G04 #@! TD*
G04 #@! TA.AperFunction,ComponentPad*
%ADD14C,1.700000*%
G04 #@! TD*
G04 #@! TA.AperFunction,Conductor*
%ADD15C,1.700000*%
G04 #@! TD*
G04 #@! TA.AperFunction,ComponentPad*
%ADD16O,1.800000X1.150000*%
G04 #@! TD*
G04 #@! TA.AperFunction,ComponentPad*
%ADD17O,2.000000X1.450000*%
G04 #@! TD*
G04 #@! TA.AperFunction,ComponentPad*
%ADD18C,1.900000*%
G04 #@! TD*
G04 #@! TA.AperFunction,ViaPad*
%ADD19C,2.000000*%
G04 #@! TD*
G04 #@! TA.AperFunction,SMDPad,CuDef*
%ADD20R,1.500000X3.000000*%
G04 #@! TD*
G04 #@! TA.AperFunction,WasherPad*
%ADD21O,2.000000X4.500000*%
G04 #@! TD*
G04 #@! TA.AperFunction,ViaPad*
%ADD22C,0.800000*%
G04 #@! TD*
G04 #@! TA.AperFunction,Conductor*
%ADD23C,0.250000*%
G04 #@! TD*
G04 APERTURE END LIST*
D10*
G04 #@! TO.P,U4,1*
G04 #@! TO.N,Net-(SW3-Pad2)*
X120047580Y-56278496D03*
D11*
G04 #@! TD*
G04 #@! TO.N,Net-(SW3-Pad2)*
G04 #@! TO.C,U4*
G36*
X119723783Y-55092049D02*
X120802459Y-55307590D01*
X120371377Y-57464943D01*
X119292701Y-57249402D01*
X119723783Y-55092049D01*
X119723783Y-55092049D01*
G37*
D10*
G04 #@! TO.P,U4,2*
G04 #@! TO.N,Net-(R6-Pad1)*
X122008809Y-56670388D03*
D11*
G04 #@! TD*
G04 #@! TO.N,Net-(R6-Pad1)*
G04 #@! TO.C,U4*
G36*
X121685012Y-55483941D02*
X122763688Y-55699482D01*
X122332606Y-57856835D01*
X121253930Y-57641294D01*
X121685012Y-55483941D01*
X121685012Y-55483941D01*
G37*
D10*
G04 #@! TO.P,U4,3*
G04 #@! TO.N,Net-(R8-Pad1)*
X123970039Y-57062280D03*
D11*
G04 #@! TD*
G04 #@! TO.N,Net-(R8-Pad1)*
G04 #@! TO.C,U4*
G36*
X123646242Y-55875833D02*
X124724918Y-56091374D01*
X124293836Y-58248727D01*
X123215160Y-58033186D01*
X123646242Y-55875833D01*
X123646242Y-55875833D01*
G37*
D10*
G04 #@! TO.P,U4,4*
G04 #@! TO.N,Net-(J3-Pad1)*
X125931268Y-57454173D03*
D11*
G04 #@! TD*
G04 #@! TO.N,Net-(J3-Pad1)*
G04 #@! TO.C,U4*
G36*
X125607471Y-56267726D02*
X126686147Y-56483267D01*
X126255065Y-58640620D01*
X125176389Y-58425079D01*
X125607471Y-56267726D01*
X125607471Y-56267726D01*
G37*
D10*
G04 #@! TO.P,U4,5*
G04 #@! TO.N,Net-(R9-Pad1)*
X127892497Y-57846065D03*
D11*
G04 #@! TD*
G04 #@! TO.N,Net-(R9-Pad1)*
G04 #@! TO.C,U4*
G36*
X127568700Y-56659618D02*
X128647376Y-56875159D01*
X128216294Y-59032512D01*
X127137618Y-58816971D01*
X127568700Y-56659618D01*
X127568700Y-56659618D01*
G37*
D10*
G04 #@! TO.P,U4,6*
G04 #@! TO.N,Net-(R10-Pad1)*
X129853727Y-58237957D03*
D11*
G04 #@! TD*
G04 #@! TO.N,Net-(R10-Pad1)*
G04 #@! TO.C,U4*
G36*
X129529930Y-57051510D02*
X130608606Y-57267051D01*
X130177524Y-59424404D01*
X129098848Y-59208863D01*
X129529930Y-57051510D01*
X129529930Y-57051510D01*
G37*
D10*
G04 #@! TO.P,U4,7*
G04 #@! TO.N,Net-(R11-Pad1)*
X131814956Y-58629850D03*
D11*
G04 #@! TD*
G04 #@! TO.N,Net-(R11-Pad1)*
G04 #@! TO.C,U4*
G36*
X131491159Y-57443403D02*
X132569835Y-57658944D01*
X132138753Y-59816297D01*
X131060077Y-59600756D01*
X131491159Y-57443403D01*
X131491159Y-57443403D01*
G37*
D10*
G04 #@! TO.P,U4,8*
G04 #@! TO.N,+3V3*
X133776185Y-59021742D03*
D11*
G04 #@! TD*
G04 #@! TO.N,+3V3*
G04 #@! TO.C,U4*
G36*
X133452388Y-57835295D02*
X134531064Y-58050836D01*
X134099982Y-60208189D01*
X133021306Y-59992648D01*
X133452388Y-57835295D01*
X133452388Y-57835295D01*
G37*
D10*
G04 #@! TO.P,U4,15*
G04 #@! TO.N,GND*
X130656723Y-74633127D03*
D11*
G04 #@! TD*
G04 #@! TO.N,GND*
G04 #@! TO.C,U4*
G36*
X130332926Y-73446680D02*
X131411602Y-73662221D01*
X130980520Y-75819574D01*
X129901844Y-75604033D01*
X130332926Y-73446680D01*
X130332926Y-73446680D01*
G37*
D10*
G04 #@! TO.P,U4,16*
G04 #@! TO.N,Net-(R16-Pad2)*
X128695493Y-74241235D03*
D11*
G04 #@! TD*
G04 #@! TO.N,Net-(R16-Pad2)*
G04 #@! TO.C,U4*
G36*
X128371696Y-73054788D02*
X129450372Y-73270329D01*
X129019290Y-75427682D01*
X127940614Y-75212141D01*
X128371696Y-73054788D01*
X128371696Y-73054788D01*
G37*
D10*
G04 #@! TO.P,U4,17*
G04 #@! TO.N,Net-(R15-Pad2)*
X126734264Y-73849343D03*
D11*
G04 #@! TD*
G04 #@! TO.N,Net-(R15-Pad2)*
G04 #@! TO.C,U4*
G36*
X126410467Y-72662896D02*
X127489143Y-72878437D01*
X127058061Y-75035790D01*
X125979385Y-74820249D01*
X126410467Y-72662896D01*
X126410467Y-72662896D01*
G37*
D10*
G04 #@! TO.P,U4,18*
G04 #@! TO.N,Net-(R14-Pad2)*
X124773035Y-73457450D03*
D11*
G04 #@! TD*
G04 #@! TO.N,Net-(R14-Pad2)*
G04 #@! TO.C,U4*
G36*
X124449238Y-72271003D02*
X125527914Y-72486544D01*
X125096832Y-74643897D01*
X124018156Y-74428356D01*
X124449238Y-72271003D01*
X124449238Y-72271003D01*
G37*
D10*
G04 #@! TO.P,U4,19*
G04 #@! TO.N,Net-(R13-Pad2)*
X122811805Y-73065558D03*
D11*
G04 #@! TD*
G04 #@! TO.N,Net-(R13-Pad2)*
G04 #@! TO.C,U4*
G36*
X122488008Y-71879111D02*
X123566684Y-72094652D01*
X123135602Y-74252005D01*
X122056926Y-74036464D01*
X122488008Y-71879111D01*
X122488008Y-71879111D01*
G37*
D10*
G04 #@! TO.P,U4,20*
G04 #@! TO.N,Net-(R12-Pad2)*
X120850576Y-72673666D03*
D11*
G04 #@! TD*
G04 #@! TO.N,Net-(R12-Pad2)*
G04 #@! TO.C,U4*
G36*
X120526779Y-71487219D02*
X121605455Y-71702760D01*
X121174373Y-73860113D01*
X120095697Y-73644572D01*
X120526779Y-71487219D01*
X120526779Y-71487219D01*
G37*
D10*
G04 #@! TO.P,U4,21*
G04 #@! TO.N,Net-(J4-Pad2)*
X118889347Y-72281773D03*
D11*
G04 #@! TD*
G04 #@! TO.N,Net-(J4-Pad2)*
G04 #@! TO.C,U4*
G36*
X118565550Y-71095326D02*
X119644226Y-71310867D01*
X119213144Y-73468220D01*
X118134468Y-73252679D01*
X118565550Y-71095326D01*
X118565550Y-71095326D01*
G37*
D10*
G04 #@! TO.P,U4,22*
G04 #@! TO.N,Net-(J4-Pad1)*
X116928117Y-71889881D03*
D11*
G04 #@! TD*
G04 #@! TO.N,Net-(J4-Pad1)*
G04 #@! TO.C,U4*
G36*
X116604320Y-70703434D02*
X117682996Y-70918975D01*
X117251914Y-73076328D01*
X116173238Y-72860787D01*
X116604320Y-70703434D01*
X116604320Y-70703434D01*
G37*
D12*
G04 #@! TO.P,SW3,1*
G04 #@! TO.N,GND*
X185570000Y-69850000D03*
G04 #@! TO.P,SW3,2*
G04 #@! TO.N,Net-(SW3-Pad2)*
X185570000Y-74350000D03*
G04 #@! TO.P,SW3,1*
G04 #@! TO.N,GND*
X179070000Y-69850000D03*
G04 #@! TO.P,SW3,2*
G04 #@! TO.N,Net-(SW3-Pad2)*
X179070000Y-74350000D03*
G04 #@! TD*
D13*
G04 #@! TO.P,GPIO16,1*
G04 #@! TO.N,Net-(J3-Pad1)*
X127000000Y-54610000D03*
G04 #@! TD*
D14*
G04 #@! TO.P,TX/RX,1*
G04 #@! TO.N,Net-(J4-Pad1)*
X118110000Y-68580000D03*
D11*
G04 #@! TD*
G04 #@! TO.N,Net-(J4-Pad1)*
G04 #@! TO.C,TX/RX*
G36*
X117113429Y-69252195D02*
X117437805Y-67583429D01*
X119106571Y-67907805D01*
X118782195Y-69576571D01*
X117113429Y-69252195D01*
X117113429Y-69252195D01*
G37*
D14*
G04 #@! TO.P,TX/RX,2*
G04 #@! TO.N,Net-(J4-Pad2)*
X120603333Y-69064655D03*
D15*
G04 #@! TD*
G04 #@! TO.N,Net-(J4-Pad2)*
G04 #@! TO.C,TX/RX*
X120603333Y-69064655D02*
X120603333Y-69064655D01*
D16*
G04 #@! TO.P,J1,6*
G04 #@! TO.N,N/C*
X186100000Y-58355000D03*
X186100000Y-66105000D03*
D17*
X182300000Y-58505000D03*
X182300000Y-65955000D03*
G04 #@! TD*
D18*
G04 #@! TO.P,S1,1*
G04 #@! TO.N,+3V3*
X133350000Y-51800000D03*
D11*
G04 #@! TD*
G04 #@! TO.N,+3V3*
G04 #@! TO.C,S1*
G36*
X132719264Y-52986243D02*
X132163757Y-51169264D01*
X133980736Y-50613757D01*
X134536243Y-52430736D01*
X132719264Y-52986243D01*
X132719264Y-52986243D01*
G37*
D18*
G04 #@! TO.P,S1,2*
G04 #@! TO.N,/3.3V*
X135740762Y-51069071D03*
G04 #@! TO.P,S1,3*
G04 #@! TO.N,Net-(S1-Pad3)*
X138131524Y-50338141D03*
G04 #@! TD*
G04 #@! TO.P,S2,3*
G04 #@! TO.N,GND*
X115339558Y-78929262D03*
G04 #@! TO.P,S2,2*
G04 #@! TO.N,Net-(R14-Pad1)*
X114819779Y-81374631D03*
G04 #@! TO.P,S2,1*
G04 #@! TO.N,+3V3*
X114300000Y-83820000D03*
D11*
G04 #@! TD*
G04 #@! TO.N,+3V3*
G04 #@! TO.C,S2*
G36*
X115031724Y-84946756D02*
X113173244Y-84551724D01*
X113568276Y-82693244D01*
X115426756Y-83088276D01*
X115031724Y-84946756D01*
X115031724Y-84946756D01*
G37*
D12*
G04 #@! TO.P,SW1,1*
G04 #@! TO.N,Net-(R6-Pad1)*
X128420000Y-88900000D03*
G04 #@! TO.P,SW1,2*
G04 #@! TO.N,Net-(R4-Pad2)*
X128420000Y-93400000D03*
G04 #@! TO.P,SW1,1*
G04 #@! TO.N,Net-(R6-Pad1)*
X121920000Y-88900000D03*
G04 #@! TO.P,SW1,2*
G04 #@! TO.N,Net-(R4-Pad2)*
X121920000Y-93400000D03*
G04 #@! TD*
G04 #@! TO.P,SW2,2*
G04 #@! TO.N,Net-(R5-Pad2)*
X177800000Y-93400000D03*
G04 #@! TO.P,SW2,1*
G04 #@! TO.N,Net-(R6-Pad1)*
X177800000Y-88900000D03*
G04 #@! TO.P,SW2,2*
G04 #@! TO.N,Net-(R5-Pad2)*
X184300000Y-93400000D03*
G04 #@! TO.P,SW2,1*
G04 #@! TO.N,Net-(R6-Pad1)*
X184300000Y-88900000D03*
G04 #@! TD*
D19*
G04 #@! TO.N,*
G04 #@! TO.C,U3*
X169650000Y-120130000D03*
D20*
G04 #@! TD*
G04 #@! TO.P,U3,*
G04 #@! TO.N,*
X171400000Y-90130000D03*
G04 #@! TO.P,U3,*
G04 #@! TO.N,*
X171400000Y-110130000D03*
X133400000Y-110130000D03*
X133400000Y-90130000D03*
D21*
X172650000Y-110130000D03*
X132150000Y-110130000D03*
X172650000Y-90130000D03*
X132150000Y-90130000D03*
D19*
G04 #@! TD*
G04 #@! TO.N,*
G04 #@! TO.C,U3*
X135150000Y-93630000D03*
D22*
G04 #@! TO.N,Net-(C1-Pad2)*
X156210000Y-50065000D03*
X174767817Y-50307817D03*
G04 #@! TO.N,GND*
X134620000Y-74930000D03*
X130727263Y-74280106D03*
X165290000Y-49340000D03*
X169811067Y-46350934D03*
G04 #@! TO.N,/3.3V*
X144780000Y-49530000D03*
G04 #@! TO.N,+3V3*
X128270000Y-80010000D03*
X130810000Y-80010000D03*
X133705645Y-59374763D03*
X125730000Y-71259469D03*
X122974459Y-62038676D03*
G04 #@! TO.N,Net-(R4-Pad2)*
X130810000Y-81280000D03*
X128420000Y-93400000D03*
G04 #@! TO.N,Net-(R6-Pad1)*
X123190000Y-82550000D03*
X147320000Y-86360000D03*
X177800000Y-88900000D03*
G04 #@! TO.N,Net-(R8-Pad1)*
X123899498Y-57415302D03*
G04 #@! TO.N,Net-(R9-Pad1)*
X127821957Y-58199086D03*
G04 #@! TO.N,Net-(R10-Pad1)*
X129783186Y-58590979D03*
G04 #@! TO.N,Net-(R10-Pad2)*
X138430000Y-68580000D03*
X153400000Y-90130000D03*
G04 #@! TO.N,Net-(R11-Pad2)*
X139700000Y-67310000D03*
X154400000Y-90130000D03*
G04 #@! TO.N,Net-(R11-Pad1)*
X131744415Y-58982871D03*
G04 #@! TO.N,Net-(R12-Pad1)*
X120650000Y-78740000D03*
X152400000Y-90130000D03*
G04 #@! TO.N,Net-(R12-Pad2)*
X120921117Y-72320644D03*
G04 #@! TO.N,Net-(R13-Pad2)*
X122882346Y-72712537D03*
G04 #@! TO.N,Net-(R13-Pad1)*
X118110000Y-85090000D03*
X118110000Y-80010000D03*
G04 #@! TO.N,Net-(R14-Pad2)*
X124843575Y-73104429D03*
G04 #@! TO.N,Net-(R15-Pad2)*
X126804805Y-73496321D03*
G04 #@! TO.N,Net-(R16-Pad2)*
X128766034Y-73888214D03*
G04 #@! TO.N,Net-(SW3-Pad2)*
X179070000Y-74350000D03*
G04 #@! TD*
D23*
G04 #@! TO.N,Net-(C1-Pad2)*
X174525000Y-50065000D02*
X174767817Y-50307817D01*
X156210000Y-50065000D02*
X174525000Y-50065000D01*
G04 #@! TO.N,GND*
X133970106Y-74280106D02*
X130727263Y-74280106D01*
X134620000Y-74930000D02*
X133970106Y-74280106D01*
X168279066Y-46350934D02*
X169811067Y-46350934D01*
X166370000Y-48260000D02*
X168279066Y-46350934D01*
X166370000Y-48260000D02*
X165290000Y-49340000D01*
G04 #@! TO.N,/3.3V*
X136690761Y-52019070D02*
X142290930Y-52019070D01*
X142290930Y-52019070D02*
X144780000Y-49530000D01*
X135740762Y-51069071D02*
X136690761Y-52019070D01*
G04 #@! TO.N,Net-(J3-Pad1)*
X126325000Y-54610000D02*
X127000000Y-54610000D01*
X127000000Y-56667921D02*
X125860727Y-57807194D01*
X127000000Y-54610000D02*
X127000000Y-56667921D01*
G04 #@! TO.N,Net-(J4-Pad1)*
X116840000Y-71695518D02*
X116998658Y-71536860D01*
X116998658Y-69691342D02*
X118110000Y-68580000D01*
X116998658Y-71536860D02*
X116998658Y-69691342D01*
G04 #@! TO.N,Net-(J4-Pad2)*
X120603333Y-70285306D02*
X120603333Y-69064655D01*
X118959887Y-71928752D02*
X120603333Y-70285306D01*
G04 #@! TO.N,+3V3*
X133350000Y-59019118D02*
X133705645Y-59374763D01*
X133350000Y-51800000D02*
X133350000Y-59019118D01*
X128270000Y-80010000D02*
X130810000Y-80010000D01*
X125730000Y-64794217D02*
X122974459Y-62038676D01*
X125730000Y-71259469D02*
X125730000Y-64794217D01*
G04 #@! TO.N,Net-(R4-Pad2)*
X130810000Y-91010000D02*
X128420000Y-93400000D01*
X130810000Y-81280000D02*
X130810000Y-91010000D01*
G04 #@! TO.N,Net-(R6-Pad1)*
X176800001Y-89899999D02*
X177800000Y-88900000D01*
X173994990Y-92705010D02*
X176800001Y-89899999D01*
X153665010Y-92705010D02*
X173994990Y-92705010D01*
X147320000Y-86360000D02*
X153665010Y-92705010D01*
X121938269Y-60805171D02*
X121938269Y-58398119D01*
X115938408Y-66805032D02*
X121938269Y-60805171D01*
X115938408Y-71960700D02*
X115938408Y-66805032D01*
X114300000Y-74754934D02*
X114600096Y-73299012D01*
X114300000Y-74930000D02*
X114300000Y-74754934D01*
X114600096Y-73299012D02*
X115938408Y-71960700D01*
X120552096Y-81182096D02*
X114300000Y-74930000D01*
X121938269Y-58398119D02*
X121938269Y-57023409D01*
X121822096Y-81182096D02*
X120552096Y-81182096D01*
X123190000Y-82550000D02*
X121822096Y-81182096D01*
G04 #@! TO.N,Net-(R10-Pad2)*
X153400000Y-83550000D02*
X153400000Y-90130000D01*
X138430000Y-68580000D02*
X153400000Y-83550000D01*
G04 #@! TO.N,Net-(R11-Pad2)*
X154400000Y-82010000D02*
X154400000Y-90130000D01*
X139700000Y-67310000D02*
X154400000Y-82010000D01*
G04 #@! TO.N,Net-(R12-Pad1)*
X141010000Y-78740000D02*
X152400000Y-90130000D01*
X120650000Y-78740000D02*
X141010000Y-78740000D01*
G04 #@! TO.N,Net-(R13-Pad1)*
X118110000Y-85090000D02*
X118110000Y-80010000D01*
G04 #@! TO.N,Net-(SW3-Pad2)*
X134068387Y-48804999D02*
X149714999Y-48804999D01*
X130308025Y-52565361D02*
X134068387Y-48804999D01*
X124043195Y-52565361D02*
X130308025Y-52565361D01*
X119977039Y-56631517D02*
X124043195Y-52565361D01*
X179070000Y-74350000D02*
X174680000Y-74350000D01*
X149714999Y-49384999D02*
X149714999Y-48804999D01*
X174680000Y-74350000D02*
X149714999Y-49384999D01*
G04 #@! TD*
M02*
