G04 #@! TF.GenerationSoftware,KiCad,Pcbnew,(5.0.0-3-g5ebb6b6)*
G04 #@! TF.CreationDate,2019-03-29T08:56:02+01:00*
G04 #@! TF.ProjectId,Securityfest_2019_badge_beta,5365637572697479666573745F323031,rev?*
G04 #@! TF.SameCoordinates,Original*
G04 #@! TF.FileFunction,Profile,NP*
%FSLAX46Y46*%
G04 Gerber Fmt 4.6, Leading zero omitted, Abs format (unit mm)*
G04 Created by KiCad (PCBNEW (5.0.0-3-g5ebb6b6)) date 2019 March 29, Friday 08:56:02*
%MOMM*%
%LPD*%
G01*
G04 APERTURE LIST*
%ADD10C,0.200000*%
G04 APERTURE END LIST*
D10*
X168420700Y-44149400D02*
X172731300Y-47080200D01*
X163851200Y-42379800D02*
X168420700Y-44149400D01*
X160246200Y-41787500D02*
X163851200Y-42379800D01*
X159046000Y-41787500D02*
X160246200Y-41787500D01*
X158591300Y-41787500D02*
X159046000Y-41787500D01*
X157229600Y-41850700D02*
X158591300Y-41787500D01*
X155526400Y-42076800D02*
X157229600Y-41850700D01*
X153677100Y-42510700D02*
X155526400Y-42076800D01*
X151983400Y-43019400D02*
X153677100Y-42510700D01*
X151423900Y-43203900D02*
X151983400Y-43019400D01*
X134787000Y-118683300D02*
X132923800Y-118213400D01*
X135408500Y-118839000D02*
X134787000Y-118683300D01*
X154093400Y-123979060D02*
X152862500Y-123591810D01*
X155234300Y-124276730D02*
X154093400Y-123979060D01*
X151927000Y-123255580D02*
X151619700Y-123134300D01*
X152862500Y-123591810D02*
X151927000Y-123255580D01*
X149184800Y-122353000D02*
X147462200Y-121870600D01*
X150635800Y-122792600D02*
X149184800Y-122353000D01*
X151391100Y-123043400D02*
X150635800Y-122792600D01*
X151619700Y-123134300D02*
X151391100Y-123043400D01*
X136145800Y-46606500D02*
X136701100Y-48006300D01*
X136046300Y-46355600D02*
X136145800Y-46606500D01*
X135699200Y-45622600D02*
X136046300Y-46355600D01*
X117737900Y-55766300D02*
X117776400Y-55552600D01*
X117678600Y-56092700D02*
X117737900Y-55766300D01*
X117400200Y-57502400D02*
X117678600Y-56092700D01*
X116748400Y-60734200D02*
X117400200Y-57502400D01*
X115786600Y-65433100D02*
X116748400Y-60734200D01*
X111371300Y-88214800D02*
X111383700Y-87695200D01*
X111408500Y-88403600D02*
X111371300Y-88214800D01*
X111444400Y-88446300D02*
X111408500Y-88403600D01*
X111480200Y-88488900D02*
X111444400Y-88446300D01*
X111794400Y-89011400D02*
X111480200Y-88488900D01*
X112187100Y-89770600D02*
X111794400Y-89011400D01*
X112264300Y-89931800D02*
X112187100Y-89770600D01*
X130563300Y-117613900D02*
X128592700Y-117106800D01*
X132923800Y-118213400D02*
X130563300Y-117613900D01*
X177541800Y-114252900D02*
X176745600Y-115225800D01*
X179646100Y-111101300D02*
X177541800Y-114252900D01*
X182162500Y-106348400D02*
X179646100Y-111101300D01*
X184180000Y-101207000D02*
X182162500Y-106348400D01*
X185320900Y-97254800D02*
X184180000Y-101207000D01*
X185592500Y-95916700D02*
X185320900Y-97254800D01*
X185755200Y-95107800D02*
X185592500Y-95916700D01*
X186207100Y-92672900D02*
X185755200Y-95107800D01*
X186591600Y-89927600D02*
X186207100Y-92672900D01*
X186821600Y-86970600D02*
X186591600Y-89927600D01*
X186945800Y-84064000D02*
X186821600Y-86970600D01*
X186976100Y-83096700D02*
X186945800Y-84064000D01*
X186995200Y-82447600D02*
X186976100Y-83096700D01*
X112340100Y-90093000D02*
X112264300Y-89931800D01*
X112801700Y-91041300D02*
X112340100Y-90093000D01*
X113854500Y-93197800D02*
X112801700Y-91041300D01*
X115271200Y-96088800D02*
X113854500Y-93197800D01*
X116492100Y-98574900D02*
X115271200Y-96088800D01*
X116900000Y-99404500D02*
X116492100Y-98574900D01*
X117336900Y-100293300D02*
X116900000Y-99404500D01*
X156591700Y-124512350D02*
X156210000Y-124460000D01*
X157753400Y-124570240D02*
X156591700Y-124512350D01*
X159623500Y-124559200D02*
X157753400Y-124570240D01*
X161469900Y-124439330D02*
X159623500Y-124559200D01*
X162584700Y-124302910D02*
X161469900Y-124439330D01*
X162948400Y-124222970D02*
X162584700Y-124302910D01*
X163468100Y-124107220D02*
X162948400Y-124222970D01*
X165002000Y-123649700D02*
X163468100Y-124107220D01*
X167084100Y-122867000D02*
X165002000Y-123649700D01*
X168977400Y-121964400D02*
X167084100Y-122867000D01*
X170115800Y-121297400D02*
X168977400Y-121964400D01*
X170465800Y-121035600D02*
X170115800Y-121297400D01*
X170994900Y-120637300D02*
X170465800Y-121035600D01*
X172563000Y-119413600D02*
X170994900Y-120637300D01*
X174112100Y-118087900D02*
X172563000Y-119413600D01*
X175407500Y-116783000D02*
X174112100Y-118087900D01*
X176420300Y-115621300D02*
X175407500Y-116783000D01*
X176745600Y-115225800D02*
X176420300Y-115621300D01*
X123043300Y-111939100D02*
X122762200Y-111363100D01*
X125104800Y-116171100D02*
X123043300Y-111939100D01*
X127279400Y-116760900D02*
X125104800Y-116171100D01*
X127577100Y-116840800D02*
X127279400Y-116760900D01*
X128592700Y-117106800D02*
X127577100Y-116840800D01*
X140878000Y-120204600D02*
X138060000Y-119500400D01*
X143523800Y-120866100D02*
X140878000Y-120204600D01*
X118647400Y-102961200D02*
X117336900Y-100293300D01*
X120387800Y-106509700D02*
X118647400Y-102961200D01*
X121920200Y-109639200D02*
X120387800Y-106509700D01*
X122762200Y-111363100D02*
X121920200Y-109639200D01*
X176910700Y-51349600D02*
X177369600Y-51928500D01*
X176755100Y-51162200D02*
X176910700Y-51349600D01*
X175841400Y-50063700D02*
X176755100Y-51162200D01*
X172731300Y-47080200D02*
X175841400Y-50063700D01*
X187061500Y-80504900D02*
X186995200Y-82447600D01*
X187160600Y-77781800D02*
X187061500Y-80504900D01*
X187261200Y-75248800D02*
X187160600Y-77781800D01*
X187327500Y-73735800D02*
X187261200Y-75248800D01*
X187352200Y-73232700D02*
X187327500Y-73735800D01*
X136069900Y-119004300D02*
X135408500Y-118839000D01*
X138060000Y-119500400D02*
X136069900Y-119004300D01*
X187390600Y-72412900D02*
X187352200Y-73232700D01*
X187476400Y-69951500D02*
X187390600Y-72412900D01*
X187542300Y-66528500D02*
X187476400Y-69951500D01*
X187554700Y-63083600D02*
X187542300Y-66528500D01*
X187513400Y-59733700D02*
X187554700Y-63083600D01*
X187422400Y-56601400D02*
X187513400Y-59733700D01*
X187284800Y-53803800D02*
X187422400Y-56601400D01*
X187100000Y-51462400D02*
X187284800Y-53803800D01*
X186948600Y-50134200D02*
X187100000Y-51462400D01*
X186874200Y-49697100D02*
X186948600Y-50134200D01*
X186807900Y-49316900D02*
X186874200Y-49697100D01*
X186564100Y-48188300D02*
X186807900Y-49316900D01*
X186197600Y-46839300D02*
X186564100Y-48188300D01*
X185810200Y-45772500D02*
X186197600Y-46839300D01*
X185558000Y-45250400D02*
X185810200Y-45772500D01*
X185443700Y-45112400D02*
X185558000Y-45250400D01*
X185356900Y-45007700D02*
X185443700Y-45112400D01*
X185010800Y-44765300D02*
X185356900Y-45007700D01*
X184488700Y-44598400D02*
X185010800Y-44765300D01*
X183953900Y-44622100D02*
X184488700Y-44598400D01*
X183585900Y-44768100D02*
X183953900Y-44622100D01*
X183488200Y-44847900D02*
X183585900Y-44768100D01*
X183376700Y-44937500D02*
X183488200Y-44847900D01*
X182990800Y-45799000D02*
X183376700Y-44937500D01*
X182272900Y-47788600D02*
X182990800Y-45799000D01*
X181494300Y-50332500D02*
X182272900Y-47788600D01*
X180966600Y-52289400D02*
X181494300Y-50332500D01*
X180814900Y-52948000D02*
X180966600Y-52289400D01*
X180768000Y-53145200D02*
X180814900Y-52948000D01*
X180524200Y-54185500D02*
X180768000Y-53145200D01*
X180318900Y-55038600D02*
X180524200Y-54185500D01*
X180293800Y-55143300D02*
X180318900Y-55038600D01*
X180106500Y-55902500D02*
X180293800Y-55143300D01*
X179121200Y-54361900D02*
X180106500Y-55902500D01*
X179002700Y-54176000D02*
X179121200Y-54361900D01*
X178629400Y-53633100D02*
X179002700Y-54176000D01*
X178020200Y-52786800D02*
X178629400Y-53633100D01*
X177369600Y-51928500D02*
X178020200Y-52786800D01*
X132367100Y-47291200D02*
X132700600Y-46086800D01*
X132270600Y-47696500D02*
X132367100Y-47291200D01*
X131815900Y-49600800D02*
X132270600Y-47696500D01*
X127216000Y-51077900D02*
X131815900Y-49600800D01*
X126250000Y-51388000D02*
X127216000Y-51077900D01*
X123357500Y-52323900D02*
X126250000Y-51388000D01*
X120615200Y-53226300D02*
X123357500Y-52323900D01*
X118929900Y-53803800D02*
X120615200Y-53226300D01*
X118311100Y-54035300D02*
X118929900Y-53803800D01*
X118242200Y-54079400D02*
X118311100Y-54035300D01*
X118210500Y-54097300D02*
X118242200Y-54079400D01*
X118002400Y-54630700D02*
X118210500Y-54097300D01*
X117776400Y-55552600D02*
X118002400Y-54630700D01*
X114839900Y-70037300D02*
X115786600Y-65433100D01*
X114522900Y-71572200D02*
X114839900Y-70037300D01*
X114272100Y-72785000D02*
X114522900Y-71572200D01*
X113521100Y-76428500D02*
X114272100Y-72785000D01*
X112742500Y-80251200D02*
X113521100Y-76428500D01*
X112160900Y-83165500D02*
X112742500Y-80251200D01*
X111757200Y-85296300D02*
X112160900Y-83165500D01*
X111505000Y-86763900D02*
X111757200Y-85296300D01*
X111383700Y-87695200D02*
X111505000Y-86763900D01*
X155964500Y-124425530D02*
X155234300Y-124276730D01*
X151081000Y-43315700D02*
X151423900Y-43203900D01*
X150053000Y-43653400D02*
X151081000Y-43315700D01*
X148271100Y-44234700D02*
X150053000Y-43653400D01*
X146307200Y-44874300D02*
X148271100Y-44234700D01*
X144871400Y-45341400D02*
X146307200Y-44874300D01*
X144393400Y-45497000D02*
X144871400Y-45341400D01*
X143933000Y-45644400D02*
X144393400Y-45497000D01*
X142556500Y-46092500D02*
X143933000Y-45644400D01*
X140804900Y-46661500D02*
X142556500Y-46092500D01*
X139336000Y-47139500D02*
X140804900Y-46661500D01*
X138576400Y-47387900D02*
X139336000Y-47139500D01*
X138350700Y-47463400D02*
X138576400Y-47387900D01*
X136701100Y-48006300D02*
X138350700Y-47463400D01*
X145127900Y-121268500D02*
X143523800Y-120866100D01*
X145662300Y-121402100D02*
X145127900Y-121268500D01*
X135261000Y-44978700D02*
X135699200Y-45622600D01*
X134785600Y-44628800D02*
X135261000Y-44978700D01*
X134368000Y-44522600D02*
X134785600Y-44628800D01*
X134228800Y-44522600D02*
X134368000Y-44522600D01*
X134069000Y-44522600D02*
X134228800Y-44522600D01*
X133589400Y-44646800D02*
X134069000Y-44522600D01*
X133111300Y-45119500D02*
X133589400Y-44646800D01*
X132700600Y-46086800D02*
X133111300Y-45119500D01*
X146113200Y-121513700D02*
X145662300Y-121402100D01*
X147462200Y-121870600D02*
X146113200Y-121513700D01*
X156210000Y-124460000D02*
X155964500Y-124425530D01*
M02*
